<?xml version="1.0" standalone="no"?>
<!DOCTYPE svg PUBLIC "-//W3C//DTD SVG 20010904//EN"
 "http://www.w3.org/TR/2001/REC-SVG-20010904/DTD/svg10.dtd">
<svg version="1.0" xmlns="http://www.w3.org/2000/svg"
 width="377.000000pt" height="164.000000pt" viewBox="0 0 377.000000 164.000000"
 preserveAspectRatio="xMidYMid meet">

<g transform="translate(0.000000,164.000000) scale(0.100000,-0.100000)"
fill="#2E2D2D" stroke="none">
<path d="M0 820 l0 -820 1885 0 1885 0 0 820 0 820 -1885 0 -1885 0 0 -820z
m2383 678 c8 -13 32 -67 53 -121 20 -53 41 -94 45 -90 4 5 27 58 51 118 l44
110 44 3 c67 5 70 -3 70 -200 l0 -168 -24 -6 c-14 -3 -30 -3 -35 1 -7 4 -11
60 -11 148 l-1 142 -44 -108 c-24 -60 -49 -115 -56 -123 -14 -17 -73 -18 -86
-1 -5 6 -30 62 -54 122 l-44 110 -5 -145 -5 -145 -25 0 -25 0 -3 175 c-1 96 0
180 2 187 3 8 23 13 50 13 36 0 48 -5 59 -22z m-1151 -27 l33 -29 3 -115 c4
-124 -7 -165 -50 -188 -11 -6 -67 -14 -123 -17 -95 -4 -104 -3 -124 17 -20 20
-21 31 -21 172 0 84 5 159 10 170 10 17 22 19 125 19 113 0 115 -1 147 -29z
m426 -3 l-3 -33 -140 0 -140 0 -3 33 -3 32 146 0 146 0 -3 -32z m450 0 l-3
-33 -140 0 -140 0 -3 33 -3 32 146 0 146 0 -3 -32z m-453 -129 c4 -5 4 -21 1
-35 -6 -24 -8 -24 -112 -24 l-105 0 3 -32 3 -33 105 -5 105 -5 3 -37 3 -38
-111 0 c-122 0 -142 6 -165 50 -18 35 -20 141 -3 158 16 16 264 17 273 1z
m445 -8 c13 -25 13 -85 0 -133 -17 -59 -38 -68 -168 -68 l-113 0 3 38 3 37 94
3 c101 3 121 11 121 48 0 23 -2 23 -107 26 -95 3 -108 5 -111 21 -9 44 1 47
137 47 119 0 131 -2 141 -19z m-189 -387 c131 -39 219 -112 219 -182 0 -75
-107 -158 -250 -193 -216 -53 -510 59 -510 194 0 30 39 83 85 114 127 86 304
112 456 67z m-446 -340 c129 -67 176 -79 295 -79 124 1 204 23 300 86 33 21
63 39 65 39 3 0 5 -27 5 -59 0 -57 -2 -61 -41 -95 -56 -47 -156 -86 -260 -99
-154 -19 -323 23 -423 105 -34 28 -36 33 -36 90 0 33 3 58 8 56 4 -2 43 -22
87 -44z m-57 -153 c128 -90 330 -131 475 -97 65 15 147 52 215 97 l33 22 -3
-68 -3 -68 -55 -38 c-90 -62 -173 -84 -320 -84 -134 0 -191 13 -280 62 -84 47
-100 69 -100 135 0 32 3 58 6 58 3 0 18 -8 32 -19z m721 -239 c1 -40 -35 -77
-114 -116 -83 -40 -160 -57 -270 -57 -144 0 -260 36 -344 106 -28 24 -31 32
-31 86 0 32 2 59 4 59 2 0 41 -20 87 -44 46 -25 111 -52 144 -60 73 -19 222
-20 290 -2 61 16 186 78 206 102 13 16 14 15 20 -12 4 -16 7 -44 8 -62z"/>
<path d="M1022 1313 l3 -118 77 0 c48 0 82 5 90 13 18 18 17 184 -1 205 -10
13 -31 17 -93 17 l-79 0 3 -117z"/>
<path d="M1697 908 c-104 -27 -149 -166 -80 -249 111 -131 323 -22 274 141
-24 82 -110 129 -194 108z m62 -22 c6 -7 22 -11 36 -8 20 3 25 0 25 -17 0 -14
6 -21 18 -21 26 0 33 -10 22 -30 -7 -13 -5 -21 5 -30 17 -14 20 -40 4 -40 -6
0 -9 -12 -7 -27 2 -22 -1 -29 -19 -31 -14 -2 -23 -11 -25 -25 -2 -17 -9 -21
-27 -19 -14 1 -28 -3 -32 -10 -6 -9 -13 -9 -31 1 -13 7 -30 11 -38 9 -8 -2
-19 7 -25 20 -5 12 -18 22 -29 22 -14 0 -17 5 -13 22 4 14 0 29 -11 41 -16 18
-16 20 0 31 11 8 15 20 11 35 -4 17 -1 23 15 28 11 2 23 14 25 25 5 16 11 19
30 14 17 -4 27 -1 31 9 7 19 20 19 35 1z"/>
<path d="M1693 784 c-15 -24 -15 -29 -2 -53 28 -49 109 -32 109 24 0 54 -77
75 -107 29z"/>
</g>
</svg>
