<?xml version="1.0" standalone="no"?>
<!DOCTYPE svg PUBLIC "-//W3C//DTD SVG 20010904//EN"
 "http://www.w3.org/TR/2001/REC-SVG-20010904/DTD/svg10.dtd">
<svg version="1.0" xmlns="http://www.w3.org/2000/svg"
 width="195.000000pt" height="62.000000pt" viewBox="0 0 195.000000 62.000000"
 preserveAspectRatio="xMidYMid meet">

<g transform="translate(0.000000,62.000000) scale(0.100000,-0.100000)"
fill="#2E2D2D" stroke="none">
<path d="M0 310 l0 -310 975 0 975 0 0 310 0 310 -975 0 -975 0 0 -310z m1583
168 c8 -13 32 -67 53 -121 20 -53 41 -94 45 -90 4 5 27 58 51 118 l44 110 44
3 c67 5 70 -3 70 -200 l0 -168 -24 -6 c-14 -3 -30 -3 -35 1 -7 4 -11 60 -11
148 l-1 142 -44 -108 c-24 -60 -49 -115 -56 -123 -14 -17 -73 -18 -86 -1 -5 6
-30 62 -54 122 l-44 110 -5 -145 -5 -145 -25 0 -25 0 -3 175 c-1 96 0 180 2
187 3 8 23 13 50 13 36 0 48 -5 59 -22z m-1151 -27 l33 -29 3 -115 c4 -124 -7
-165 -50 -188 -11 -6 -67 -14 -123 -17 -95 -4 -104 -3 -124 17 -20 20 -21 31
-21 172 0 84 5 159 10 170 10 17 22 19 125 19 113 0 115 -1 147 -29z m426 -3
l-3 -33 -140 0 -140 0 -3 33 -3 32 146 0 146 0 -3 -32z m450 0 l-3 -33 -140 0
-140 0 -3 33 -3 32 146 0 146 0 -3 -32z m-453 -129 c4 -5 4 -21 1 -35 -6 -24
-8 -24 -112 -24 l-105 0 3 -32 3 -33 105 -5 105 -5 3 -37 3 -38 -111 0 c-122
0 -142 6 -165 50 -18 35 -20 141 -3 158 16 16 264 17 273 1z m445 -8 c13 -25
13 -85 0 -133 -17 -59 -38 -68 -168 -68 l-113 0 3 38 3 37 94 3 c101 3 121 11
121 48 0 23 -2 23 -107 26 -95 3 -108 5 -111 21 -9 44 1 47 137 47 119 0 131
-2 141 -19z"/>
<path d="M222 293 l3 -118 77 0 c48 0 82 5 90 13 18 18 17 184 -1 205 -10 13
-31 17 -93 17 l-79 0 3 -117z"/>
</g>
</svg>
