<svg width="720" height="576" xmlns="http://www.w3.org/2000/svg" xmlns:xlink="http://www.w3.org/1999/xlink" xml:space="preserve" overflow="hidden"><defs><clipPath id="clip0"><rect x="321" y="9" width="720" height="576"/></clipPath></defs><g clip-path="url(#clip0)" transform="translate(-321 -9)"><path d="M322.95 552.642C321.224 552.642 320.071 552.068 318.344 551.49 312.586 549.189 309.711 542.278 312.586 536.523 314.313 532.492 316.039 527.89 317.192 523.859 317.192 522.706 316.618 520.979 316.618 519.827 316.044 515.795 315.465 511.768 314.317 508.315 307.984 488.164 300.5 468.019 293.018 448.447L293.018 447.873C292.444 446.146 291.866 444.42 280.927 445.572 276.895 446.146 273.442 446.146 269.988 446.724 256.171 447.295 241.779 449.021 227.388 447.295 191.12 443.841 186.513 420.812 187.092 397.213L187.092 396.638C187.666 392.032 185.939 385.7 184.213 383.399 174.427 373.613 174.427 363.827 177.306 356.916 175.579 354.037 175.005 351.158 175.005 350.584L175.005 350.009C175.005 348.857 175.005 347.708 174.431 346.556 173.857 342.524 173.278 337.923 174.431 331.59 175.583 325.831 175.005 324.683 175.005 324.683 175.005 324.683 173.853 323.53 168.672 321.229 164.067 320.077 159.461 318.35 153.706 315.471 145.073 310.865 139.889 305.111 138.162 298.2 136.435 291.293 137.588 283.234 142.768 274.596 147.948 265.385 153.707 256.173 158.887 246.965 165.219 236.027 172.126 225.089 178.458 214.15 180.185 211.849 179.611 204.939 179.611 200.333L179.611 195.153C179.611 192.852 179.037 189.395 178.458 185.941 177.306 179.609 175.579 172.702 177.306 164.643L177.306 164.068C181.912 149.102 187.666 128.953 196.303 111.107 214.148 70.8111 248.111 43.18 294.166 30.5153 350.006 15.549 397.786 13.823 440.386 25.9095 506.012 44.9065 576.243 101.9 576.243 183.643 576.243 211.274 569.911 239.483 558.972 263.086 529.614 324.685 523.857 352.889 539.975 420.819 540.549 421.972 540.549 421.972 540.549 423.12 541.124 424.847 542.85 430.027 549.183 439.813L573.935 468.596C577.966 473.202 577.388 480.687 572.782 484.715 568.176 488.746 560.691 488.168 556.663 483.562L531.333 454.204C530.759 453.63 530.759 453.052 530.18 453.052 520.969 438.085 518.668 430.027 518.089 425.421 500.256 351.153 507.163 318.336 538.251 252.134 548.037 231.41 553.217 206.08 553.217 182.476 553.217 113.397 491.619 63.8883 434.054 47.1939 395.484 36.2551 351.735 37.408 299.923 51.7998 260.201 62.1597 231.996 85.1886 217.026 119.727 208.967 136.419 203.786 154.842 199.755 169.234 199.18 172.113 200.329 176.719 200.907 180.747 201.481 184.778 202.634 189.38 202.634 193.986L202.634 198.592C202.634 207.225 203.208 216.436 198.602 224.496 192.27 235.435 185.363 246.947 179.03 257.885 173.85 267.096 168.092 276.308 162.912 284.941 160.611 288.973 160.611 290.699 160.611 290.699 160.611 290.699 161.185 291.852 165.217 294.153 168.67 295.879 171.549 297.032 175.577 298.184L176.151 298.184C195.148 305.091 200.903 315.456 197.45 335.027 196.875 337.906 196.875 339.059 197.45 341.934 199.751 342.508 201.481 344.235 202.63 345.966 205.509 349.997 205.509 355.177 202.055 359.205 199.755 362.658 199.176 363.811 198.602 364.385 198.602 364.385 199.176 365.538 200.903 366.686L201.477 367.26C208.384 375.319 210.689 388.559 210.111 397.196 209.536 419.073 213.564 421.948 229.682 423.679 241.773 424.831 254.434 423.679 267.099 422.526 270.552 421.952 274.006 421.952 277.459 421.374 284.944 420.222 306.817 417.921 313.727 439.219 321.212 458.79 328.693 479.514 335.026 499.665 336.752 504.271 337.327 509.451 337.905 514.631 338.479 516.358 338.479 518.663 339.057 520.39L339.057 524.421C337.905 531.906 335.026 538.238 332.151 544.572 331.584 549.756 327.557 552.635 322.951 552.635Z" transform="matrix(1.00058 0 0 1 321 9)"/><path d="M286.683 175.003 286.683 135.86 472.624 135.86 472.624 175.003ZM286.683 251.567 286.683 212.424 472.624 212.424 472.624 251.567Z" transform="matrix(1.00058 0 0 1 321 9)"/><path d="M19.2911-1.15648C18.2952-0.642488 17.2552-0.256995 16.1751 0 15.1029 0.265024 13.9786 0.40155 12.8021 0.40155 9.30857 0.40155 6.54186-0.57021 4.49793-2.52182 2.44999-4.48136 1.43002-7.1317 1.43002-10.4726 1.43002-13.8216 2.44998-16.4718 4.49793-18.4234 6.54186-20.383 9.30857-21.3629 12.8021-21.3629 13.9786-21.3629 15.103-21.2263 16.1751-20.9613 17.2553-20.7043 18.2953-20.3188 19.2911-19.8048L19.2911-15.468C18.2832-16.1426 17.2913-16.6405 16.3196-16.9617 15.3438-17.283 14.3159-17.4436 13.2357-17.4436 11.3082-17.4436 9.79028-16.8212 8.69003-15.5804 7.58578-14.3476 7.0356-12.645 7.0356-10.4726 7.0356-8.30815 7.58573-6.60561 8.69003-5.36473 9.79028-4.13198 11.3082-3.51755 13.2357-3.51755 14.3159-3.51755 15.3438-3.67015 16.3196-3.98335 17.2914-4.3046 18.2832-4.80654 19.2911-5.49325Z" transform="matrix(1.00058 0 0 1 393 671.019)"/><path d="M14.1183-11.4527C13.6685-11.6535 13.2228-11.8061 12.7851-11.9025 12.3554-12.0069 11.9218-12.0631 11.4841-12.0631 10.1871-12.0631 9.19117-11.6455 8.49657-10.8102 7.79786-9.98298 7.45255-8.80244 7.45255-7.26047L7.45255-0.000359793 2.42511-0.000359793 2.42511-15.7408 7.45255-15.7408 7.45255-13.1548C8.09504-14.1828 8.83395-14.9297 9.66908-15.4035 10.5123-15.8854 11.5203-16.1263 12.6888-16.1263 12.8574-16.1263 13.0421-16.1143 13.2349-16.0942 13.4357-16.0821 13.7248-16.054 14.1022-16.0139Z" transform="matrix(1.00058 0 0 1 414.138 671.019)"/><path d="M18.1346-7.91864 18.1346-6.47309 6.36114-6.47309C6.48964-5.29256 6.91529-4.40911 7.64612-3.82285 8.37293-3.23257 9.39687-2.93943 10.714-2.93943 11.7741-2.93943 12.8543-3.09202 13.9585-3.40523 15.0708-3.72647 16.2113-4.20031 17.3798-4.83474L17.3798-0.963773C16.1912-0.514031 15.0026-0.17673 13.8139 0.0481506 12.6253 0.28105 11.4367 0.401519 10.248 0.401519 7.39704 0.401519 5.1804-0.321275 3.59824-1.7669 2.0242-3.21245 1.23707-5.24035 1.23707-7.8545 1.23707-10.4244 2.01208-12.4402 3.56606-13.9099 5.11605-15.3876 7.24829-16.1265 9.95887-16.1265 12.4324-16.1265 14.4121-15.3755 15.9018-13.8777 17.3876-12.388 18.1345-10.4003 18.1345-7.91865ZM12.9626-9.5891C12.9626-10.5408 12.6815-11.3078 12.1274-11.886 11.5692-12.4723 10.8424-12.7694 9.94293-12.7694 8.96715-12.7694 8.17604-12.4964 7.56573-11.9503 6.95542-11.4041 6.57389-10.6171 6.42529-9.5891Z" transform="matrix(1.00058 0 0 1 428.341 671.019)"/><path d="M9.47674-7.0834C8.42471-7.0834 7.63358-6.90671 7.09954-6.55335 6.5735-6.19999 6.3125-5.67395 6.3125-4.97931 6.3125-4.33682 6.52532-3.83085 6.95499-3.46941 7.38063-3.11604 7.97092-2.93937 8.72188-2.93937 9.67356-2.93937 10.4726-3.27667 11.1151-3.95129 11.7656-4.63393 12.0949-5.48524 12.0949-6.5052L12.0949-7.08344ZM17.1545-8.97879 17.1545 0 12.0949 0 12.0949-2.32899C11.4203-1.37329 10.6574-0.67857 9.81402-0.240959 8.96674 0.184687 7.93878 0.401529 6.73008 0.401529 5.09981 0.401529 3.77865-0.0682887 2.7627-1.01194 1.74275-1.96363 1.23676-3.20041 1.23676-4.72234 1.23676-6.5615 1.8672-7.91072 3.13215-8.77001 4.4051-9.63737 6.40082-10.071 9.12333-10.071L12.0948-10.071 12.0948-10.4726C12.0948-11.2636 11.7776-11.8418 11.1471-12.2073 10.5127-12.5807 9.53289-12.7695 8.20772-12.7695 7.12351-12.7695 6.11969-12.661 5.18803-12.4482 4.26445-12.2314 3.40911-11.9101 2.61808-11.4845L2.61808-15.3234C3.68626-15.5804 4.76234-15.7771 5.84656-15.9177 6.93879-16.0542 8.03101-16.1265 9.12324-16.1265 11.9582-16.1265 14.0061-15.5643 15.2591-14.44 16.52-13.3237 17.1544-11.5046 17.1544-8.97883Z" transform="matrix(1.00058 0 0 1 447.872 671.019)"/><path d="M7.91864-20.206 7.91864-15.7406 13.1067-15.7406 13.1067-12.1427 7.91864-12.1427 7.91864-5.46084C7.91864-4.73 8.06319-4.24011 8.35232-3.98312 8.64145-3.72612 9.21165-3.59762 10.071-3.59762L12.657-3.59762 12.657 0.000308394 8.35232 0.000308394C6.36061 0.000308394 4.94713-0.40928 4.1119-1.23645 3.2847-2.07169 2.87514-3.47714 2.87514-5.46084L2.87514-12.1427 0.385472-12.1427 0.385472-15.7406 2.87514-15.7406 2.87514-20.206Z" transform="matrix(1.00058 0 0 1 467.306 671.019)"/><path d="M18.1346-7.91864 18.1346-6.47309 6.36114-6.47309C6.48964-5.29256 6.91529-4.40911 7.64612-3.82285 8.37293-3.23257 9.39687-2.93943 10.714-2.93943 11.7741-2.93943 12.8543-3.09202 13.9585-3.40523 15.0708-3.72647 16.2113-4.20031 17.3798-4.83474L17.3798-0.963773C16.1912-0.514031 15.0026-0.17673 13.8139 0.0481506 12.6253 0.28105 11.4367 0.401519 10.248 0.401519 7.39704 0.401519 5.1804-0.321275 3.59824-1.7669 2.0242-3.21245 1.23707-5.24035 1.23707-7.8545 1.23707-10.4244 2.01208-12.4402 3.56606-13.9099 5.11605-15.3876 7.24829-16.1265 9.95887-16.1265 12.4324-16.1265 14.4121-15.3755 15.9018-13.8777 17.3876-12.388 18.1345-10.4003 18.1345-7.91865ZM12.9626-9.5891C12.9626-10.5408 12.6815-11.3078 12.1274-11.886 11.5692-12.4723 10.8424-12.7694 9.94293-12.7694 8.96715-12.7694 8.17604-12.4964 7.56573-11.9503 6.95542-11.4041 6.57389-10.6171 6.42529-9.5891Z" transform="matrix(1.00058 0 0 1 481.075 671.019)"/><path d="M13.1232-13.4439 13.1232-21.8766 18.1828-21.8766 18.1828-0.000102798 13.1232-0.000102798 13.1232-2.28099C12.4365-1.34938 11.6777-0.666748 10.8423-0.241061 10.007 0.184625 9.03533 0.401426 7.93508 0.401426 5.99559 0.401426 4.40541-0.369559 3.16464-1.91153 1.91986-3.4535 1.30142-5.43318 1.30142-7.85449 1.30142-10.2839 1.91981-12.2716 3.16464-13.8136 4.40541-15.3556 5.99559-16.1265 7.93508-16.1265 9.02731-16.1265 9.99104-15.9057 10.8263-15.468 11.6695-15.0263 12.4365-14.3517 13.1232-13.4441ZM9.81433-3.24441C10.8825-3.24441 11.7016-3.63392 12.2718-4.41692 12.838-5.20798 13.1231-6.3524 13.1231-7.85428 13.1231-9.35205 12.838-10.4925 12.2718-11.2755 11.7016-12.0666 10.8824-12.4641 9.81433-12.4641 8.74215-12.4641 7.92306-12.0665 7.35684-11.2755 6.78663-10.4925 6.50555-9.35205 6.50555-7.85428 6.50555-6.35251 6.78664-5.20806 7.35684-4.41692 7.92303-3.63389 8.74225-3.24441 9.81433-3.24441Z" transform="matrix(1.00058 0 0 1 500.606 671.019)"/><path d="M10.7938-3.24451C11.874-3.24451 12.6972-3.63402 13.2673-4.41703 13.8335-5.20809 14.1186-6.35251 14.1186-7.85439 14.1186-9.35215 13.8335-10.4926 13.2673-11.2756 12.6971-12.0667 11.8739-12.4642 10.7938-12.4642 9.70958-12.4642 8.88237-12.0666 8.30413-11.2756 7.73392-10.4805 7.45284-9.34013 7.45284-7.85439 7.45284-6.36464 7.73393-5.2242 8.30413-4.43317 8.88237-3.63808 9.70958-3.24461 10.7938-3.24461ZM7.45286-13.444C8.14755-14.3515 8.91454-15.0262 9.74978-15.4679 10.593-15.9056 11.5648-16.1265 12.657-16.1265 14.6045-16.1265 16.1987-15.3555 17.4435-13.8135 18.6843-12.2715 19.3067-10.2838 19.3067-7.85441 19.3067-5.433 18.6843-3.45342 17.4435-1.91145 16.1987-0.369477 14.6045 0.401509 12.657 0.401509 11.5648 0.401509 10.593 0.184666 9.74978-0.240979 8.91454-0.678673 8.14757-1.35726 7.45286-2.2809L7.45286-2.05596e-05 2.42542-2.05596e-05 2.42542-21.8765 7.45286-21.8765Z" transform="matrix(1.00058 0 0 1 531.25 671.019)"/><path d="M0.353368-15.7404 5.38081-15.7404 9.62123-5.05869 13.2192-15.7404 18.2466-15.7404 11.629 1.49468C10.9624 3.23742 10.1874 4.45815 9.29998 5.15686 8.40853 5.8636 7.24402 6.21692 5.79848 6.21692L2.87511 6.21692 2.87511 2.90805 4.44915 2.90805C5.30446 2.90805 5.92687 2.76751 6.31236 2.49044 6.70589 2.22139 7.01107 1.73953 7.2279 1.04489L7.37246 0.611206Z" transform="matrix(1.00058 0 0 1 551.866 671.019)"/><path d="M0.851291-20.977 6.0394-20.977 9.66941-5.73407 13.2673-20.977 18.4875-20.977 22.0855-5.73407 25.6994-20.977 30.8554-20.977 25.9082 0 19.66 0 15.8533-15.9501 12.0948 0 5.84666 0Z" transform="matrix(1.00058 0 0 1 580.666 671.019)"/><path d="M18.1346-7.91864 18.1346-6.47309 6.36114-6.47309C6.48964-5.29256 6.91529-4.40911 7.64612-3.82285 8.37293-3.23257 9.39687-2.93943 10.714-2.93943 11.7741-2.93943 12.8543-3.09202 13.9585-3.40523 15.0708-3.72647 16.2113-4.20031 17.3798-4.83474L17.3798-0.963773C16.1912-0.514031 15.0026-0.17673 13.8139 0.0481506 12.6253 0.28105 11.4367 0.401519 10.248 0.401519 7.39704 0.401519 5.1804-0.321275 3.59824-1.7669 2.0242-3.21245 1.23707-5.24035 1.23707-7.8545 1.23707-10.4244 2.01208-12.4402 3.56606-13.9099 5.11605-15.3876 7.24829-16.1265 9.95887-16.1265 12.4324-16.1265 14.4121-15.3755 15.9018-13.8777 17.3876-12.388 18.1345-10.4003 18.1345-7.91865ZM12.9626-9.5891C12.9626-10.5408 12.6815-11.3078 12.1274-11.886 11.5692-12.4723 10.8424-12.7694 9.94293-12.7694 8.96715-12.7694 8.17604-12.4964 7.56573-11.9503 6.95542-11.4041 6.57389-10.6171 6.42529-9.5891Z" transform="matrix(1.00058 0 0 1 612.431 671.019)"/><path d="M14.7125-15.2429 14.7125-11.42C13.6403-11.8698 12.6003-12.2071 11.5964-12.432 10.5885-12.6568 9.64091-12.7693 8.75346-12.7693 7.79775-12.7693 7.087-12.6488 6.61721-12.4159 6.15542-12.179 5.92653-11.8096 5.92653-11.3076 5.92653-10.9101 6.10322-10.6049 6.45658-10.3921 6.80995-10.1752 7.44039-10.0146 8.35197-9.91022L9.2354-9.78173C11.8134-9.44843 13.5481-8.90634 14.4395-8.15947 15.327-7.40856 15.7727-6.23602 15.7727-4.64182 15.7727-2.95933 15.1503-1.6944 13.9095-0.851147 12.6768-0.0159131 10.8336 0.401755 8.38413 0.401755 7.33209 0.401755 6.25189 0.321444 5.13961 0.160817 4.03536 0.000195316 2.89893-0.244752 1.73443-0.578044L1.73443-4.4009C2.73028-3.90698 3.7502-3.53756 4.80233-3.29263 5.86239-3.05571 6.93858-2.93926 8.03081-2.93926 9.01462-2.93926 9.7535-3.07178 10.2473-3.34081 10.7372-3.61788 10.9862-4.02345 10.9862-4.56154 10.9862-5.01128 10.8135-5.34055 10.4722-5.55739 10.1269-5.78227 9.44825-5.95092 8.43229-6.07139L7.54886-6.18383C5.30817-6.4609 3.74215-6.97891 2.84266-7.74183 1.94318-8.50077 1.49344-9.65326 1.49344-11.1952 1.49344-12.8657 2.05963-14.1025 3.19598-14.9056 4.34043-15.7168 6.09519-16.1263 8.46438-16.1263 9.38394-16.1263 10.3516-16.0501 11.3716-15.9015 12.3996-15.7609 13.5119-15.5401 14.7125-15.2429Z" transform="matrix(1.00058 0 0 1 631.966 671.019)"/><path d="M11.0508-12.8662C11.8941-12.8662 12.5365-13.0509 12.9783-13.4284 13.428-13.8018 13.6529-14.352 13.6529-15.0828 13.6529-15.7976 13.428-16.3437 12.9783-16.7212 12.5365-17.1067 11.894-17.2994 11.0508-17.2994L8.04713-17.2994 8.04713-12.8663ZM11.2275-3.67863C12.3197-3.67863 13.1389-3.90752 13.685-4.36931 14.2311-4.82708 14.5041-5.52578 14.5041-6.45734 14.5041-7.36485 14.2311-8.04752 13.685-8.49726 13.1469-8.94701 12.3277-9.17188 11.2275-9.17188L8.04711-9.17188 8.04711-3.67856ZM16.2549-11.2279C17.4194-10.8946 18.3189-10.2722 18.9534-9.3647 19.5959-8.45316 19.9171-7.34081 19.9171-6.02376 19.9171-3.99987 19.2304-2.49008 17.8611-1.49427 16.4879-0.498416 14.4117-0.00051399 11.629-0.00051399L2.65022-0.00051399 2.65022-20.9775 10.7616-20.9775C13.6728-20.9775 15.781-20.5358 17.09-19.6604 18.4071-18.781 19.0657-17.3715 19.0657-15.436 19.0657-14.4081 18.8248-13.5326 18.3429-12.8179 17.8611-12.1111 17.1624-11.5811 16.2549-11.2277Z" transform="matrix(1.00058 0 0 1 659.135 671.019)"/><path d="M14.1183-11.4527C13.6685-11.6535 13.2228-11.8061 12.7851-11.9025 12.3554-12.0069 11.9218-12.0631 11.4841-12.0631 10.1871-12.0631 9.19117-11.6455 8.49657-10.8102 7.79786-9.98298 7.45255-8.80244 7.45255-7.26047L7.45255-0.000359793 2.42511-0.000359793 2.42511-15.7408 7.45255-15.7408 7.45255-13.1548C8.09504-14.1828 8.83395-14.9297 9.66908-15.4035 10.5123-15.8854 11.5203-16.1263 12.6888-16.1263 12.8574-16.1263 13.0421-16.1143 13.2349-16.0942 13.4357-16.0821 13.7248-16.054 14.1022-16.0139Z" transform="matrix(1.00058 0 0 1 681.084 671.019)"/><path d="M18.1346-7.91864 18.1346-6.47309 6.36114-6.47309C6.48964-5.29256 6.91529-4.40911 7.64612-3.82285 8.37293-3.23257 9.39687-2.93943 10.714-2.93943 11.7741-2.93943 12.8543-3.09202 13.9585-3.40523 15.0708-3.72647 16.2113-4.20031 17.3798-4.83474L17.3798-0.963773C16.1912-0.514031 15.0026-0.17673 13.8139 0.0481506 12.6253 0.28105 11.4367 0.401519 10.248 0.401519 7.39704 0.401519 5.1804-0.321275 3.59824-1.7669 2.0242-3.21245 1.23707-5.24035 1.23707-7.8545 1.23707-10.4244 2.01208-12.4402 3.56606-13.9099 5.11605-15.3876 7.24829-16.1265 9.95887-16.1265 12.4324-16.1265 14.4121-15.3755 15.9018-13.8777 17.3876-12.388 18.1345-10.4003 18.1345-7.91865ZM12.9626-9.5891C12.9626-10.5408 12.6815-11.3078 12.1274-11.886 11.5692-12.4723 10.8424-12.7694 9.94293-12.7694 8.96715-12.7694 8.17604-12.4964 7.56573-11.9503 6.95542-11.4041 6.57389-10.6171 6.42529-9.5891Z" transform="matrix(1.00058 0 0 1 695.287 671.019)"/><path d="M9.47674-7.0834C8.42471-7.0834 7.63358-6.90671 7.09954-6.55335 6.5735-6.19999 6.3125-5.67395 6.3125-4.97931 6.3125-4.33682 6.52532-3.83085 6.95499-3.46941 7.38063-3.11604 7.97092-2.93937 8.72188-2.93937 9.67356-2.93937 10.4726-3.27667 11.1151-3.95129 11.7656-4.63393 12.0949-5.48524 12.0949-6.5052L12.0949-7.08344ZM17.1545-8.97879 17.1545 0 12.0949 0 12.0949-2.32899C11.4203-1.37329 10.6574-0.67857 9.81402-0.240959 8.96674 0.184687 7.93878 0.401529 6.73008 0.401529 5.09981 0.401529 3.77865-0.0682887 2.7627-1.01194 1.74275-1.96363 1.23676-3.20041 1.23676-4.72234 1.23676-6.5615 1.8672-7.91072 3.13215-8.77001 4.4051-9.63737 6.40082-10.071 9.12333-10.071L12.0948-10.071 12.0948-10.4726C12.0948-11.2636 11.7776-11.8418 11.1471-12.2073 10.5127-12.5807 9.53289-12.7695 8.20772-12.7695 7.12351-12.7695 6.11969-12.661 5.18803-12.4482 4.26445-12.2314 3.40911-11.9101 2.61808-11.4845L2.61808-15.3234C3.68626-15.5804 4.76234-15.7771 5.84656-15.9177 6.93879-16.0542 8.03101-16.1265 9.12324-16.1265 11.9582-16.1265 14.0061-15.5643 15.2591-14.44 16.52-13.3237 17.1544-11.5046 17.1544-8.97883Z" transform="matrix(1.00058 0 0 1 714.822 671.019)"/><path d="M1.63839-15.7404 15.3712-15.7404 15.3712-12.2228 7.08309-3.59742 15.3712-3.59742 15.3712 0.00051399 1.30019 0.00051399 1.30019-3.51713 9.58828-12.1425 1.63747-12.1425Z" transform="matrix(1.00058 0 0 1 734.253 671.019)"/><path d="M18.1346-7.91864 18.1346-6.47309 6.36114-6.47309C6.48964-5.29256 6.91529-4.40911 7.64612-3.82285 8.37293-3.23257 9.39687-2.93943 10.714-2.93943 11.7741-2.93943 12.8543-3.09202 13.9585-3.40523 15.0708-3.72647 16.2113-4.20031 17.3798-4.83474L17.3798-0.963773C16.1912-0.514031 15.0026-0.17673 13.8139 0.0481506 12.6253 0.28105 11.4367 0.401519 10.248 0.401519 7.39704 0.401519 5.1804-0.321275 3.59824-1.7669 2.0242-3.21245 1.23707-5.24035 1.23707-7.8545 1.23707-10.4244 2.01208-12.4402 3.56606-13.9099 5.11605-15.3876 7.24829-16.1265 9.95887-16.1265 12.4324-16.1265 14.4121-15.3755 15.9018-13.8777 17.3876-12.388 18.1345-10.4003 18.1345-7.91865ZM12.9626-9.5891C12.9626-10.5408 12.6815-11.3078 12.1274-11.886 11.5692-12.4723 10.8424-12.7694 9.94293-12.7694 8.96715-12.7694 8.17604-12.4964 7.56573-11.9503 6.95542-11.4041 6.57389-10.6171 6.42529-9.5891Z" transform="matrix(1.00058 0 0 1 751.015 671.019)"/><path d="M2.42542-21.8764 7.45286-21.8764 7.45286 0 2.42542 0Z" transform="matrix(1.00058 0 0 1 770.55 671.019)"/><path d="M2.42542-21.8764 7.45286-21.8764 7.45286 0 2.42542 0Z" transform="matrix(1.00058 0 0 1 780.422 671.019)"/><path d="M12.7696-21.8764 12.7696-18.5676 9.99084-18.5676C9.2841-18.5676 8.78615-18.4391 8.49708-18.1821 8.21599-17.9251 8.07946-17.4754 8.07946-16.8329L8.07946-15.7406 12.3841-15.7406 12.3841-12.1427 8.07946-12.1427 8.07946-0.000205596 3.05202-0.000205596 3.05202-12.1427 0.54632-12.1427 0.54632-15.7406 3.05202-15.7406 3.05202-16.8329C3.05202-18.5435 3.52586-19.8124 4.48153-20.6396 5.43322-21.4628 6.91497-21.8763 8.93073-21.8763Z" transform="matrix(1.00058 0 0 1 393 699.803)"/><path d="M14.1183-11.4527C13.6685-11.6535 13.2228-11.8061 12.7851-11.9025 12.3554-12.0069 11.9218-12.0631 11.4841-12.0631 10.1871-12.0631 9.19117-11.6455 8.49657-10.8102 7.79786-9.98298 7.45255-8.80244 7.45255-7.26047L7.45255-0.000359793 2.42511-0.000359793 2.42511-15.7408 7.45255-15.7408 7.45255-13.1548C8.09504-14.1828 8.83395-14.9297 9.66908-15.4035 10.5123-15.8854 11.5203-16.1263 12.6888-16.1263 12.8574-16.1263 13.0421-16.1143 13.2349-16.0942 13.4357-16.0821 13.7248-16.054 14.1022-16.0139Z" transform="matrix(1.00058 0 0 1 405.532 699.803)"/><path d="M9.91035-12.529C8.79406-12.529 7.94269-12.1275 7.35643-11.3243 6.76615-10.5212 6.47301-9.3648 6.47301-7.8549 6.47301-6.345 6.76615-5.18853 7.35643-4.38547 7.9427-3.59039 8.79396-3.19692 9.91035-3.19692 11.0026-3.19692 11.8378-3.59044 12.416-4.38547 13.0023-5.18858 13.2995-6.345 13.2995-7.8549 13.2995-9.3648 13.0023-10.5213 12.416-11.3243 11.8378-12.1274 11.0026-12.529 9.91035-12.529ZM9.91035-16.127C12.6168-16.127 14.733-15.3921 16.2549-13.9265 17.7729-12.4688 18.5358-10.445 18.5358-7.855 18.5358-5.27303 17.7729-3.24914 16.2549-1.78355 14.733-0.32587 12.6168 0.400912 9.91035 0.400912 7.18784 0.400912 5.06363-0.325901 3.53368-1.78355 1.99973-3.24924 1.23676-5.27303 1.23676-7.855 1.23676-10.445 1.99972-12.4689 3.53368-13.9265 5.06363-15.3922 7.18784-16.127 9.91035-16.127Z" transform="matrix(1.00058 0 0 1 419.735 699.803)"/><path d="M17.01-13.1232C17.6404-14.095 18.3954-14.8419 19.2747-15.3559 20.1501-15.8699 21.1139-16.1269 22.1659-16.1269 23.9729-16.1269 25.3503-15.5647 26.2939-14.4403 27.2456-13.3241 27.7234-11.7098 27.7234-9.58951L27.7234-0.000411192 22.6638-0.000411192 22.6638-8.20822 22.6638-8.57765C22.6718-8.71418 22.6798-8.90693 22.6798-9.15589 22.6798-10.2682 22.5112-11.0713 22.1819-11.5653 21.8607-12.0672 21.3346-12.3202 20.6079-12.3202 19.6522-12.3202 18.9133-11.9227 18.3913-11.1316 17.8653-10.3486 17.5963-9.2122 17.5882-7.72646L17.5882-0.000575669 12.5286-0.000575669 12.5286-8.20838C12.5286-9.95112 12.376-11.0715 12.0789-11.5654 11.7777-12.0673 11.2436-12.3203 10.4726-12.3203 9.50892-12.3203 8.76198-11.9227 8.23998-11.1317 7.71394-10.3487 7.45293-9.22031 7.45293-7.74258L7.45293-0.000657907 2.39332-0.000657907 2.39332-15.7411 7.45293-15.7411 7.45293-13.4442C8.07133-14.3316 8.7781-15.0022 9.57314-15.4519 10.3763-15.9017 11.2596-16.1265 12.2234-16.1265 13.3156-16.1265 14.2793-15.8615 15.1146-15.3395 15.9498-14.8135 16.5803-14.0746 17.01-13.123Z" transform="matrix(1.00058 0 0 1 439.519 699.803)"/><path d="M7.91864-20.206 7.91864-15.7406 13.1067-15.7406 13.1067-12.1427 7.91864-12.1427 7.91864-5.46084C7.91864-4.73 8.06319-4.24011 8.35232-3.98312 8.64145-3.72612 9.21165-3.59762 10.071-3.59762L12.657-3.59762 12.657 0.000308394 8.35232 0.000308394C6.36061 0.000308394 4.94713-0.40928 4.1119-1.23645 3.2847-2.07169 2.87514-3.47714 2.87514-5.46084L2.87514-12.1427 0.385472-12.1427 0.385472-15.7406 2.87514-15.7406 2.87514-20.206Z" transform="matrix(1.00058 0 0 1 479.557 699.803)"/><path d="M18.2467-9.5891 18.2467 0 13.187 0 13.187-7.30832C13.187-8.68972 13.1549-9.63732 13.0907-10.1513 13.0264-10.6653 12.918-11.0428 12.7694-11.2917 12.5767-11.613 12.3076-11.862 11.9663-12.0467 11.633-12.2274 11.2515-12.3197 10.8259-12.3197 9.77383-12.3197 8.95062-11.9101 8.35234-11.099 7.75001-10.2959 7.45286-9.17555 7.45286-7.74203L7.45286-0.000102798 2.42542-0.000102798 2.42542-21.8766 7.45286-21.8766 7.45286-13.4439C8.21179-14.3514 9.01487-15.0261 9.86224-15.4678 10.7175-15.9055 11.6612-16.1264 12.6892-16.1264 14.5082-16.1264 15.8896-15.5642 16.8332-14.4399 17.7728-13.3236 18.2467-11.7093 18.2467-9.58902Z" transform="matrix(1.00058 0 0 1 493.322 699.803)"/><path d="M18.1346-7.91864 18.1346-6.47309 6.36114-6.47309C6.48964-5.29256 6.91529-4.40911 7.64612-3.82285 8.37293-3.23257 9.39687-2.93943 10.714-2.93943 11.7741-2.93943 12.8543-3.09202 13.9585-3.40523 15.0708-3.72647 16.2113-4.20031 17.3798-4.83474L17.3798-0.963773C16.1912-0.514031 15.0026-0.17673 13.8139 0.0481506 12.6253 0.28105 11.4367 0.401519 10.248 0.401519 7.39704 0.401519 5.1804-0.321275 3.59824-1.7669 2.0242-3.21245 1.23707-5.24035 1.23707-7.8545 1.23707-10.4244 2.01208-12.4402 3.56606-13.9099 5.11605-15.3876 7.24829-16.1265 9.95887-16.1265 12.4324-16.1265 14.4121-15.3755 15.9018-13.8777 17.3876-12.388 18.1345-10.4003 18.1345-7.91865ZM12.9626-9.5891C12.9626-10.5408 12.6815-11.3078 12.1274-11.886 11.5692-12.4723 10.8424-12.7694 9.94293-12.7694 8.96715-12.7694 8.17604-12.4964 7.56573-11.9503 6.95542-11.4041 6.57389-10.6171 6.42529-9.5891Z" transform="matrix(1.00058 0 0 1 513.825 699.803)"/><path d="M2.65024-20.977 8.68962-20.977 16.3192-6.58524 16.3192-20.977 21.4431-20.977 21.4431 0 15.4037 0 7.7741-14.3917 7.7741 0 2.65024 0Z" transform="matrix(1.00058 0 0 1 543.384 699.803)"/><path d="M9.91035-12.529C8.79406-12.529 7.94269-12.1275 7.35643-11.3243 6.76615-10.5212 6.47301-9.3648 6.47301-7.8549 6.47301-6.345 6.76615-5.18853 7.35643-4.38547 7.9427-3.59039 8.79396-3.19692 9.91035-3.19692 11.0026-3.19692 11.8378-3.59044 12.416-4.38547 13.0023-5.18858 13.2995-6.345 13.2995-7.8549 13.2995-9.3648 13.0023-10.5213 12.416-11.3243 11.8378-12.1274 11.0026-12.529 9.91035-12.529ZM9.91035-16.127C12.6168-16.127 14.733-15.3921 16.2549-13.9265 17.7729-12.4688 18.5358-10.445 18.5358-7.855 18.5358-5.27303 17.7729-3.24914 16.2549-1.78355 14.733-0.32587 12.6168 0.400912 9.91035 0.400912 7.18784 0.400912 5.06363-0.325901 3.53368-1.78355 1.99973-3.24924 1.23676-5.27303 1.23676-7.855 1.23676-10.445 1.99972-12.4689 3.53368-13.9265 5.06363-15.3922 7.18784-16.127 9.91035-16.127Z" transform="matrix(1.00058 0 0 1 567.487 699.803)"/><path d="M2.24871-6.13581 2.24871-15.7411 7.30832-15.7411 7.30832-14.167C7.30832-13.3077 7.30029-12.2395 7.29226-10.9546 7.28021-9.66959 7.2762-8.81031 7.2762-8.38462 7.2762-7.10766 7.30832-6.19214 7.37257-5.63796 7.44485-5.0798 7.55729-4.67825 7.70987-4.43327 7.9227-4.09998 8.19576-3.84298 8.52905-3.66228 8.85832-3.48961 9.23981-3.40529 9.66949-3.40529 10.7175-3.40529 11.5407-3.80684 12.143-4.60998 12.7413-5.41309 13.0425-6.52942 13.0425-7.96695L13.0425-15.7411 18.0699-15.7411 18.0699-0.000616788 13.0425-0.000616788 13.0425-2.2815C12.2795-1.35792 11.4765-0.679289 10.6331-0.241575 9.78584 0.18407 8.85019 0.400912 7.82221 0.400912 6.01122 0.400912 4.62982-0.153231 3.67822-1.26956 2.72251-2.38183 2.24871-4.00419 2.24871-6.13643Z" transform="matrix(1.00058 0 0 1 587.275 699.803)"/><path d="M18.2467-9.5891 18.2467 0 13.187 0 13.187-7.3404C13.187-8.69764 13.1549-9.63732 13.0907-10.1513 13.0264-10.6653 12.918-11.0428 12.7694-11.2917 12.5767-11.613 12.3076-11.862 11.9663-12.0467 11.633-12.2274 11.2515-12.3197 10.8259-12.3197 9.77383-12.3197 8.95062-11.9101 8.35234-11.099 7.75001-10.2959 7.45286-9.17555 7.45286-7.74203L7.45286-0.000102798 2.42542-0.000102798 2.42542-15.7405 7.45286-15.7405 7.45286-13.4436C8.21179-14.3511 9.01487-15.0258 9.86224-15.4675 10.7175-15.9052 11.6612-16.1261 12.6892-16.1261 14.5082-16.1261 15.8896-15.5639 16.8332-14.4395 17.7728-13.3233 18.2467-11.709 18.2467-9.58871Z" transform="matrix(1.00058 0 0 1 607.779 699.803)"/><path d="M2.65024-20.977 11.629-20.977C14.2954-20.977 16.3392-20.3827 17.7648-19.194 19.1984-18.0135 19.9172-16.3269 19.9172-14.1344 19.9172-11.9379 19.1984-10.2474 17.7648-9.05877 16.3393-7.87022 14.2954-7.27584 11.629-7.27584L8.04713-7.27584 8.04713 0.000308394 2.65024 0.000308394ZM8.04713-17.0578 8.04713-11.1951 11.0508-11.1951C12.0988-11.1951 12.906-11.4521 13.4762-11.9661 14.0544-12.4801 14.3436-13.2029 14.3436-14.1345 14.3436-15.0742 14.0544-15.797 13.4762-16.3029 12.906-16.8049 12.0989-17.0579 11.0508-17.0579Z" transform="matrix(1.00058 0 0 1 638.306 699.803)"/><path d="M14.1183-11.4527C13.6685-11.6535 13.2228-11.8061 12.7851-11.9025 12.3554-12.0069 11.9218-12.0631 11.4841-12.0631 10.1871-12.0631 9.19117-11.6455 8.49657-10.8102 7.79786-9.98298 7.45255-8.80244 7.45255-7.26047L7.45255-0.000359793 2.42511-0.000359793 2.42511-15.7408 7.45255-15.7408 7.45255-13.1548C8.09504-14.1828 8.83395-14.9297 9.66908-15.4035 10.5123-15.8854 11.5203-16.1263 12.6888-16.1263 12.8574-16.1263 13.0421-16.1143 13.2349-16.0942 13.4357-16.0821 13.7248-16.054 14.1022-16.0139Z" transform="matrix(1.00058 0 0 1 659.416 699.803)"/><path d="M9.91035-12.529C8.79406-12.529 7.94269-12.1275 7.35643-11.3243 6.76615-10.5212 6.47301-9.3648 6.47301-7.8549 6.47301-6.345 6.76615-5.18853 7.35643-4.38547 7.9427-3.59039 8.79396-3.19692 9.91035-3.19692 11.0026-3.19692 11.8378-3.59044 12.416-4.38547 13.0023-5.18858 13.2995-6.345 13.2995-7.8549 13.2995-9.3648 13.0023-10.5213 12.416-11.3243 11.8378-12.1274 11.0026-12.529 9.91035-12.529ZM9.91035-16.127C12.6168-16.127 14.733-15.3921 16.2549-13.9265 17.7729-12.4688 18.5358-10.445 18.5358-7.855 18.5358-5.27303 17.7729-3.24914 16.2549-1.78355 14.733-0.32587 12.6168 0.400912 9.91035 0.400912 7.18784 0.400912 5.06363-0.325901 3.53368-1.78355 1.99973-3.24924 1.23676-5.27303 1.23676-7.855 1.23676-10.445 1.99972-12.4689 3.53368-13.9265 5.06363-15.3922 7.18784-16.127 9.91035-16.127Z" transform="matrix(1.00058 0 0 1 673.615 699.803)"/><path d="M2.42542-15.7404 7.45286-15.7404 7.45286-0.288862C7.45286 1.81932 6.94289 3.42955 5.92692 4.54583 4.91902 5.65811 3.4534 6.2163 1.52593 6.2163L-0.963732 6.2163-0.963732 2.90744-0.0803058 2.90744C0.871378 2.90744 1.52591 2.69059 1.87923 2.26495 2.24063 1.83528 2.42534 0.983983 2.42534-0.288965ZM2.42542-21.8762 7.45286-21.8762 7.45286-17.7643 2.42542-17.7643Z" transform="matrix(1.00058 0 0 1 693.403 699.803)"/><path d="M18.1346-7.91864 18.1346-6.47309 6.36114-6.47309C6.48964-5.29256 6.91529-4.40911 7.64612-3.82285 8.37293-3.23257 9.39687-2.93943 10.714-2.93943 11.7741-2.93943 12.8543-3.09202 13.9585-3.40523 15.0708-3.72647 16.2113-4.20031 17.3798-4.83474L17.3798-0.963773C16.1912-0.514031 15.0026-0.17673 13.8139 0.0481506 12.6253 0.28105 11.4367 0.401519 10.248 0.401519 7.39704 0.401519 5.1804-0.321275 3.59824-1.7669 2.0242-3.21245 1.23707-5.24035 1.23707-7.8545 1.23707-10.4244 2.01208-12.4402 3.56606-13.9099 5.11605-15.3876 7.24829-16.1265 9.95887-16.1265 12.4324-16.1265 14.4121-15.3755 15.9018-13.8777 17.3876-12.388 18.1345-10.4003 18.1345-7.91865ZM12.9626-9.5891C12.9626-10.5408 12.6815-11.3078 12.1274-11.886 11.5692-12.4723 10.8424-12.7694 9.94293-12.7694 8.96715-12.7694 8.17604-12.4964 7.56573-11.9503 6.95542-11.4041 6.57389-10.6171 6.42529-9.5891Z" transform="matrix(1.00058 0 0 1 703.275 699.803)"/><path d="M15.1308-15.2429 15.1308-11.147C14.4562-11.6168 13.7696-11.9662 13.0749-12.191 12.3882-12.4159 11.6774-12.5283 10.9386-12.5283 9.53318-12.5283 8.43694-12.1147 7.64591-11.2916 6.86288-10.4764 6.4734-9.33203 6.4734-7.8542 6.4734-6.3845 6.86291-5.24005 7.64591-4.41684 8.43697-3.60168 9.53318-3.19611 10.9386-3.19611 11.7176-3.19611 12.4646-3.30855 13.1713-3.53342 13.878-3.76631 14.5285-4.11567 15.1308-4.57743L15.1308-0.465511C14.3478-0.176391 13.5487 0.0364316 12.7376 0.176977 11.9345 0.325551 11.1194 0.401848 10.2961 0.401848 7.45717 0.401848 5.23653-0.324965 3.63031-1.78261 2.03211-3.23628 1.23707-5.26006 1.23707-7.85407 1.23707-10.4561 2.03215-12.484 3.63031-13.9417 5.23653-15.3953 7.45717-16.1261 10.2961-16.1261 11.1193-16.1261 11.9345-16.0498 12.7376-15.9013 13.5407-15.7607 14.3358-15.5399 15.1308-15.2427Z" transform="matrix(1.00058 0 0 1 722.81 699.803)"/><path d="M7.91864-20.206 7.91864-15.7406 13.1067-15.7406 13.1067-12.1427 7.91864-12.1427 7.91864-5.46084C7.91864-4.73 8.06319-4.24011 8.35232-3.98312 8.64145-3.72612 9.21165-3.59762 10.071-3.59762L12.657-3.59762 12.657 0.000308394 8.35232 0.000308394C6.36061 0.000308394 4.94713-0.40928 4.1119-1.23645 3.2847-2.07169 2.87514-3.47714 2.87514-5.46084L2.87514-12.1427 0.385472-12.1427 0.385472-15.7406 2.87514-15.7406 2.87514-20.206Z" transform="matrix(1.00058 0 0 1 739.878 699.803)"/></g></svg>