<svg width="47" height="46" viewBox="0 0 47 46" fill="none" xmlns="http://www.w3.org/2000/svg">
<path fill-rule="evenodd" clip-rule="evenodd" d="M2.64233 23C5.97028 14.5858 14.1843 8.625 23.8027 8.625C33.421 8.625 41.635 14.5858 44.963 23C41.635 31.4142 33.421 37.375 23.8027 37.375C14.1843 37.375 5.97028 31.4142 2.64233 23ZM40.7694 23C37.5953 16.5408 31.0934 12.4583 23.8027 12.4583C16.512 12.4583 10.01 16.5408 6.83593 23C10.01 29.4592 16.4927 33.5417 23.8027 33.5417C31.1126 33.5417 37.5953 29.4592 40.7694 23ZM23.8027 18.2083C26.4573 18.2083 28.6118 20.355 28.6118 23C28.6118 25.645 26.4573 27.7917 23.8027 27.7917C21.148 27.7917 18.9935 25.645 18.9935 23C18.9935 20.355 21.148 18.2083 23.8027 18.2083ZM15.1462 23C15.1462 18.2467 19.032 14.375 23.8027 14.375C28.5734 14.375 32.4592 18.2467 32.4592 23C32.4592 27.7533 28.5734 31.625 23.8027 31.625C19.032 31.625 15.1462 27.7533 15.1462 23Z" fill="#DADADA"/>
</svg>
