<svg width="40" height="39" viewBox="0 0 40 39" fill="none" xmlns="http://www.w3.org/2000/svg">
<path fill-rule="evenodd" clip-rule="evenodd" d="M19.8468 0.0546875C8.97355 0.0546875 0.166748 8.82399 0.166748 19.6509C0.166748 28.3222 5.80015 35.6463 13.623 38.2428C14.607 38.4143 14.976 37.8264 14.976 37.312C14.976 36.8466 14.9514 35.3034 14.9514 33.6622C10.0068 34.5685 8.72755 32.4619 8.33395 31.3596C8.11255 30.7962 7.15315 29.0571 6.31675 28.5917C5.62795 28.2242 4.64395 27.3179 6.29215 27.2934C7.84195 27.2689 8.94895 28.7141 9.31795 29.302C11.0892 32.266 13.9182 31.4331 15.0498 30.9187C15.222 29.645 15.7386 28.7876 16.3044 28.2977C11.9256 27.8078 7.34995 26.1176 7.34995 18.6221C7.34995 16.491 8.11255 14.7273 9.36715 13.3556C9.17035 12.8657 8.48155 10.8571 9.56395 8.16262C9.56395 8.16262 11.2122 7.64822 14.976 10.1712C16.5504 9.73031 18.2232 9.50986 19.896 9.50986C21.5688 9.50986 23.2416 9.73031 24.816 10.1712C28.5798 7.62372 30.228 8.16262 30.228 8.16262C31.3104 10.8571 30.6216 12.8657 30.4248 13.3556C31.6794 14.7273 32.442 16.4665 32.442 18.6221C32.442 26.1421 27.8418 27.8078 23.463 28.2977C24.1764 28.9101 24.7914 30.0859 24.7914 31.923C24.7914 34.544 24.7668 36.6506 24.7668 37.312C24.7668 37.8264 25.1358 38.4388 26.1198 38.2428C33.8934 35.6463 39.5268 28.2977 39.5268 19.6509C39.5268 8.82399 30.72 0.0546875 19.8468 0.0546875Z" fill="#DADADA"/>
</svg>
