<svg width="36" height="36" viewBox="0 0 36 36" fill="none" xmlns="http://www.w3.org/2000/svg">
<path fill-rule="evenodd" clip-rule="evenodd" d="M18.404 2.92529C12.7637 2.92529 8.2019 7.50316 8.2019 13.1633C8.2019 20.8419 18.404 32.1769 18.404 32.1769C18.404 32.1769 28.6062 20.8419 28.6062 13.1633C28.6062 7.50316 24.0444 2.92529 18.404 2.92529ZM11.1168 13.1633C11.1168 9.12662 14.3815 5.85045 18.404 5.85045C22.4266 5.85045 25.6913 9.12662 25.6913 13.1633C25.6913 17.3756 21.4938 23.6793 18.404 27.6136C15.3726 23.7085 11.1168 17.3317 11.1168 13.1633ZM14.7604 13.1633C14.7604 11.1439 16.3917 9.50689 18.404 9.50689C19.7058 9.50689 20.9086 10.2038 21.5595 11.3351C22.2104 12.4664 22.2104 13.8603 21.5595 14.9916C20.9086 16.1229 19.7058 16.8198 18.404 16.8198C16.3917 16.8198 14.7604 15.1827 14.7604 13.1633Z" fill="#DADADA"/>
</svg>
