<svg width="644" height="639" xmlns="http://www.w3.org/2000/svg" xmlns:xlink="http://www.w3.org/1999/xlink" xml:space="preserve" overflow="hidden"><defs><clipPath id="clip0"><rect x="304" y="0" width="644" height="639"/></clipPath></defs><g clip-path="url(#clip0)" transform="translate(-304 0)"><path d="M633.246 269.463C633.246 257.751 626.906 247.498 617.472 241.949 621.277 236.698 623.515 230.249 623.515 223.283 623.515 205.692 609.204 191.374 591.606 191.374L534.078 191.374 534.074 191.374C528.968 191.374 524.05 192.587 519.614 194.853 523.214 188.139 525.198 181.763 525.877 176.841 525.93 176.439 525.962 176.037 525.962 175.636L525.962 138.045C525.962 101.145 495.937 71.12 459.033 71.12 454.167 71.12 450.218 75.0695 450.218 79.9351L450.218 85.4235C436.183 78.4083 421.466 72.8842 406.275 68.9345L391.75 31.1872C390.44 27.7841 387.174 25.5422 383.526 25.5422L314.877 25.5462C311.229 25.5462 307.958 27.7921 306.653 31.1912L292.12 68.9427C271.966 74.182 252.689 82.1731 234.693 92.7519L197.705 76.3226C194.37 74.84 190.477 75.5673 187.893 78.1467L139.346 126.694C136.767 129.273 136.04 133.175 137.522 136.506L153.956 173.502C143.385 191.498 135.393 210.775 130.146 230.921L92.3949 245.453C88.9918 246.763 86.7498 250.029 86.7498 253.678L86.7498 322.33C86.7498 325.978 88.9958 329.249 92.3949 330.555L130.146 345.087C135.386 365.241 143.377 384.514 153.956 402.506L137.522 439.502C136.04 442.833 136.767 446.73 139.346 449.314L187.893 497.861C190.473 500.441 194.366 501.16 197.705 499.685L234.689 483.256C252.685 493.835 271.966 501.827 292.128 507.065L306.653 544.813C307.962 548.216 311.229 550.458 314.877 550.458L383.53 550.458C387.178 550.458 390.449 548.212 391.754 544.813L406.287 507.061C426.441 501.822 445.714 493.831 463.706 483.252L500.702 499.685C504.033 501.168 507.93 500.441 510.514 497.861L559.061 449.314C561.64 446.735 562.359 442.833 560.885 439.502L544.456 402.518C546.155 399.634 547.778 396.692 549.353 393.727L571.367 393.727 571.371 393.727C579.868 393.727 587.872 390.405 593.907 384.362 599.949 378.327 603.272 370.316 603.272 361.822 603.272 355.526 601.444 349.656 598.286 344.709 609.339 339.695 617.049 328.546 617.049 315.64 617.049 309.682 615.41 304.109 612.553 299.332 624.631 294.788 633.245 283.112 633.245 269.464ZM524.013 213.202C526.717 210.498 530.301 209.003 534.085 209.003L591.613 209.003C599.484 209.003 605.889 215.404 605.889 223.279 605.889 231.15 599.488 237.554 591.609 237.554L534.085 237.554C526.215 237.554 519.806 231.154 519.806 223.279 519.81 219.49 521.301 215.914 524.013 213.202ZM467.851 89.5376C490.842 93.7081 508.338 113.865 508.338 138.049L508.338 174.976C507.366 180.887 503.3 190.485 494.803 198.995 491.801 201.997 491.371 206.706 493.766 210.205 500.869 220.571 503.268 230.234 501.098 239.724 496.952 257.884 476.714 271.211 468.208 276.097 463.985 278.519 462.531 283.907 464.958 288.134 467.38 292.357 472.768 293.811 476.995 291.384 481.824 288.608 487.98 284.647 494.099 279.535 496.558 286.908 501.636 293.096 508.229 296.977 504.432 302.228 502.186 308.677 502.186 315.643 502.186 324.719 505.995 332.928 512.102 338.742 511.918 338.922 511.729 339.103 511.544 339.28 505.501 345.323 502.178 353.326 502.178 361.82 502.178 367.734 503.794 373.412 506.811 378.357 459.742 386.369 431.492 389.129 403.327 363.953L403.327 212.631C406.441 210.365 409.639 208.107 412.97 205.76 438.692 187.628 467.846 167.073 467.846 128.384L467.846 89.5324ZM385.707 217.008 385.707 358.991 341.816 358.991 341.816 217.008ZM391.609 199.377 333.001 199.377C328.136 199.377 324.186 203.327 324.186 208.192L324.186 367.805C324.186 372.671 328.136 376.62 333.001 376.62L391.055 376.62C398.11 383.008 405.185 387.934 412.41 391.655 393.457 403.29 371.886 409.377 349.201 409.377 282.272 409.377 227.82 354.927 227.82 287.996 227.82 221.065 282.27 166.615 349.201 166.615 371.85 166.615 393.51 172.758 412.519 184.442 409.349 186.748 395.314 196.648 391.61 199.373ZM502.324 481.111 466.665 465.273C464.006 464.092 460.94 464.301 458.465 465.824 439.601 477.439 419.146 485.917 397.663 491.036 394.839 491.707 392.521 493.732 391.476 496.44L377.474 532.826 320.924 532.826 306.926 496.448C305.881 493.736 303.567 491.715 300.738 491.044 279.239 485.926 258.78 477.448 239.916 465.832 237.445 464.309 234.372 464.104 231.716 465.282L196.07 481.116 156.084 441.127 171.922 405.469C173.103 402.809 172.895 399.743 171.372 397.268 159.756 378.404 151.279 357.949 146.16 336.467 145.489 333.642 143.464 331.324 140.756 330.279L104.37 316.277 104.37 259.727 140.756 245.725C143.468 244.68 145.489 242.366 146.16 239.537 151.27 218.05 159.756 197.592 171.372 178.736 172.895 176.265 173.1 173.191 171.922 170.535L156.084 134.877 196.074 94.8917 231.724 110.726C234.376 111.908 237.449 111.703 239.925 110.176 258.784 98.5604 279.243 90.083 300.734 84.9721 303.559 84.3011 305.877 82.2761 306.922 79.5601L320.924 43.1746 377.474 43.1746 391.472 79.5518C392.516 82.2639 394.831 84.2849 397.659 84.9558 416.037 89.3312 433.695 96.1898 450.224 105.35L450.224 128.388C450.224 147.517 440.565 161.066 427.142 172.909 404.104 157.247 377.313 148.995 349.196 148.995 272.548 148.995 210.186 211.352 210.186 288.006 210.186 364.655 272.543 427.016 349.196 427.016 379.298 427.016 408.801 417.116 432.776 399.076 440.622 400.86 448.754 401.616 457.297 401.616 476.015 401.616 496.759 398.02 520.975 393.821L526.58 392.849C527.496 393.07 528.42 393.259 529.364 393.395 528.597 394.705 527.817 396.007 527.026 397.297 525.503 399.776 525.298 402.841 526.475 405.497L542.31 441.143ZM581.431 371.898C578.719 374.61 575.143 376.097 571.358 376.097L534.081 376.097C530.296 376.097 526.712 374.602 524.008 371.898 521.296 369.186 519.809 365.61 519.809 361.818 519.809 358.033 521.304 354.449 524.008 351.745 526.72 349.033 530.296 347.546 534.081 347.546L534.109 347.546 571.35 347.546 571.354 347.546C579.225 347.546 585.63 353.947 585.63 361.826 585.633 365.619 584.143 369.194 581.431 371.898ZM585.127 329.924 534.072 329.924C526.201 329.924 519.797 323.515 519.797 315.644 519.797 307.773 526.205 301.364 534.076 301.364L585.123 301.364C592.994 301.364 599.398 307.765 599.398 315.64 599.406 323.515 593.002 329.915 585.127 329.924ZM601.335 283.735 524.357 283.735C516.487 283.735 510.078 277.334 510.078 269.459 510.078 261.588 516.478 255.18 524.357 255.18L601.335 255.18C609.206 255.18 615.615 261.588 615.615 269.459 615.615 277.334 609.206 283.735 601.335 283.735Z" transform="matrix(1 0 0 1.00054 280.003 -0.00720382)"/><path d="M20.1054-1.20538C19.0648-0.666983 17.9839-0.265205 16.859 0 15.734 0.277229 14.5608 0.417855 13.3394 0.417855 9.69515 0.417855 6.80632-0.598656 4.67689-2.63575 2.55547-4.66881 1.49471-7.42907 1.49471-10.9125 1.49471-14.416 2.55537-17.1844 4.67689-19.2214 6.80632-21.2544 9.69515-22.275 13.3394-22.275 14.5608-22.275 15.734-22.1343 16.859-21.8571 17.984-21.5879 19.0648-21.1821 20.1054-20.6357L20.1054-16.1197C19.0527-16.8268 18.0201-17.3451 17.0036-17.6786 15.9951-18.008 14.9304-18.1768 13.8054-18.1768 11.7885-18.1768 10.2054-17.5339 9.04829-16.2482 7.89917-14.9625 7.32863-13.1826 7.32863-10.9125 7.32863-8.66255 7.89916-6.88663 9.04829-5.59291 10.2054-4.3072 11.7885-3.66435 13.8054-3.66435 14.9304-3.66435 15.9951-3.82908 17.0036-4.16256 18.0201-4.49202 19.0527-5.01434 20.1054-5.72146Z" transform="matrix(1 0 0 1.00054 352.002 666.346)"/><path d="M14.7054-11.9406C14.2433-12.1536 13.7893-12.3103 13.3394-12.4067 12.8894-12.5111 12.4313-12.5674 11.9733-12.5674 10.6233-12.5674 9.58273-12.1335 8.85553-11.2656 8.12429-10.4058 7.76268-9.16829 7.76268-7.55313L7.76268 0.000442283 2.52338 0.000442283 2.52338-16.4083 7.76268-16.4083 7.76268-13.7083C8.43768-14.7891 9.20905-15.5766 10.077-16.0708 10.9528-16.561 12.0055-16.8101 13.2269-16.8101 13.4077-16.8101 13.6006-16.798 13.8055-16.7779 14.0064-16.7659 14.3037-16.7337 14.6894-16.6815Z" transform="matrix(1 0 0 1.00054 374.02 666.346)"/><path d="M18.8999-8.24457 18.8999-6.74996 6.63733-6.74996C6.7659-5.5165 7.20786-4.59635 7.97128-3.98569 8.73065-3.37498 9.79533-3.06963 11.1695-3.06963 12.2704-3.06963 13.4034-3.23034 14.5606-3.55177 15.7177-3.88123 16.9069-4.37945 18.1285-5.04638L18.1285-0.996402C16.883-0.522295 15.6414-0.168726 14.3999 0.0642545 13.1544 0.297286 11.9169 0.417824 10.6874 0.417824 7.70621 0.417824 5.39194-0.329491 3.74459-1.83216 2.10527-3.34292 1.28571-5.46423 1.28571-8.19641 1.28571-10.8643 2.09329-12.9615 3.7125-14.4964 5.32766-16.0392 7.55358-16.8106 10.3821-16.8106 12.9616-16.8106 15.0267-16.0312 16.5696-14.4803 18.1204-12.9254 18.8999-10.8483 18.8999-8.24465ZM13.516-9.99632C13.516-10.9927 13.2186-11.7963 12.632-12.4071 12.0535-13.0178 11.2981-13.3231 10.366-13.3231 9.34547-13.3231 8.51777-13.0338 7.87492-12.4553 7.2401-11.8847 6.85038-11.0651 6.70174-9.99639Z" transform="matrix(1 0 0 1.00054 388.813 666.346)"/><path d="M9.86785-7.37677C8.775-7.37677 7.94731-7.18793 7.39291-6.81426 6.84649-6.44864 6.57327-5.90624 6.57327-5.19109 6.57327-4.52412 6.79024-4.00587 7.23219-3.63219 7.68219-3.25451 8.30097-3.06969 9.09646-3.06969 10.0808-3.06969 10.9125-3.42326 11.5875-4.13035 12.2626-4.83743 12.6-5.72143 12.6-6.78209L12.6-7.37672ZM17.8875-9.36961 17.8875 0 12.6 0 12.6-2.4268C11.8929-1.43037 11.0974-0.707138 10.2215-0.257141 9.34156 0.192856 8.27686 0.417855 7.02325 0.417855 5.31974 0.417855 3.93755-0.0723184 2.8769-1.06071 1.81624-2.05713 1.28581-3.34289 1.28581-4.91783 1.28581-6.84639 1.94473-8.26066 3.26261-9.16066 4.58853-10.0607 6.67374-10.5106 9.51433-10.5106L12.6-10.5106 12.6-10.9124C12.6-11.7481 12.2706-12.3588 11.6197-12.7445 10.9648-13.1302 9.94024-13.3231 8.55003-13.3231 7.43311-13.3231 6.3884-13.2106 5.41609-12.9856 4.45181-12.7606 3.55583-12.4231 2.73216-11.9731L2.73216-15.9748C3.84506-16.24 4.97011-16.4449 6.10708-16.5855 7.24015-16.7342 8.37713-16.8105 9.51421-16.8105 12.4713-16.8105 14.6008-16.2239 15.9106-15.0588 17.2284-13.8896 17.8874-11.9931 17.8874-9.36958Z" transform="matrix(1 0 0 1.00054 409.16 666.346)"/><path d="M8.24457-21.0691 8.24457-16.4085 13.6606-16.4085 13.6606-12.6639 8.24457-12.6639 8.24457-5.70504C8.24457-4.94165 8.39322-4.42334 8.69456-4.14615 9.00393-3.87695 9.61062-3.74437 10.5106-3.74437L13.1945-3.74437 13.1945 0.000226284 8.71061 0.000226284C6.62941 0.000226284 5.15887-0.425661 4.29097-1.28548 3.43115-2.15333 3.00526-3.62382 3.00526-5.70512L3.00526-12.664 0.401758-12.664 0.401758-16.4086 3.00526-16.4086 3.00526-21.0692Z" transform="matrix(1 0 0 1.00054 429.406 666.346)"/><path d="M18.8999-8.24457 18.8999-6.74996 6.63733-6.74996C6.7659-5.5165 7.20786-4.59635 7.97128-3.98569 8.73065-3.37498 9.79533-3.06963 11.1695-3.06963 12.2704-3.06963 13.4034-3.23034 14.5606-3.55177 15.7177-3.88123 16.9069-4.37945 18.1285-5.04638L18.1285-0.996402C16.883-0.522295 15.6414-0.168726 14.3999 0.0642545 13.1544 0.297286 11.9169 0.417824 10.6874 0.417824 7.70621 0.417824 5.39194-0.329491 3.74459-1.83216 2.10527-3.34292 1.28571-5.46423 1.28571-8.19641 1.28571-10.8643 2.09329-12.9615 3.7125-14.4964 5.32766-16.0392 7.55358-16.8106 10.3821-16.8106 12.9616-16.8106 15.0267-16.0312 16.5696-14.4803 18.1204-12.9254 18.8999-10.8483 18.8999-8.24465ZM13.516-9.99632C13.516-10.9927 13.2186-11.7963 12.632-12.4071 12.0535-13.0178 11.2981-13.3231 10.366-13.3231 9.34547-13.3231 8.51777-13.0338 7.87492-12.4553 7.2401-11.8847 6.85038-11.0651 6.70174-9.99639Z" transform="matrix(1 0 0 1.00054 443.745 666.346)"/><path d="M13.6768-14.0142 13.6768-22.7891 18.9643-22.7891 18.9643-0.000205713 13.6768-0.000205713 13.6768-2.37876C12.9576-1.40243 12.1661-0.691299 11.2983-0.241301 10.4304 0.196641 9.42196 0.417618 8.27686 0.417618 6.25182 0.417618 4.58853-0.377915 3.2947-1.97698 1.99696-3.58412 1.35009-5.65729 1.35009-8.19661 1.35009-10.7238 1.99697-12.7931 3.2947-14.4001 4.58843-16.0072 6.25182-16.8108 8.27686-16.8108 9.40993-16.8108 10.4143-16.5778 11.2822-16.1198 12.1581-15.6698 12.9577-14.9667 13.6768-14.0144ZM10.2215-3.39118C11.3465-3.39118 12.2023-3.79698 12.7929-4.6126 13.3795-5.43625 13.6768-6.62951 13.6768-8.19653 13.6768-9.7474 13.3795-10.9367 12.7929-11.7644 12.2023-12.5881 11.3465-13.0019 10.2215-13.0019 9.10455-13.0019 8.25269-12.5881 7.6661-11.7644 7.07548-10.9367 6.78217-9.74751 6.78217-8.19653 6.78217-6.62962 7.07548-5.43627 7.6661-4.6126 8.2527-3.79698 9.10445-3.39118 10.2215-3.39118Z" transform="matrix(1 0 0 1.00054 464.092 666.346)"/><path d="M11.2504-3.39108C12.3755-3.39108 13.2313-3.79688 13.8219-4.6125 14.4085-5.43615 14.7058-6.62941 14.7058-8.19643 14.7058-9.7473 14.4085-10.9366 13.8219-11.7643 13.2312-12.588 12.3755-13.0018 11.2504-13.0018 10.1254-13.0018 9.26161-12.5879 8.66299-11.7643 8.06031-10.9366 7.76299-9.7474 7.76299-8.19643 7.76299-6.64155 8.06031-5.45222 8.66299-4.62854 9.26164-3.80087 10.1255-3.39108 11.2504-3.39108ZM7.76299-14.0141C8.49022-14.9663 9.29381-15.6695 10.1737-16.1195 11.0496-16.5775 12.0581-16.8105 13.1952-16.8105 15.2202-16.8105 16.8795-16.007 18.1773-14.3998 19.4831-12.7927 20.138-10.7235 20.138-8.19631 20.138-5.65698 19.4831-3.58381 18.1773-1.97668 16.8796-0.377566 15.2202 0.417927 13.1952 0.417927 12.0581 0.417927 11.0497 0.192928 10.1737-0.257069 9.29384-0.707066 8.49029-1.4142 7.76299-2.37848L7.76299 7.19996e-05 2.52369 7.19996e-05 2.52369-22.7888 7.76299-22.7888Z" transform="matrix(1 0 0 1.00054 496.009 666.346)"/><path d="M0.369646-16.4087 5.60895-16.4087 10.0286-5.2714 13.7732-16.4087 19.0125-16.4087 12.1179 1.5593C11.4188 3.37935 10.6113 4.65302 9.69112 5.38433 8.76701 6.11156 7.55366 6.47718 6.0429 6.47718L3.00545 6.47718 3.00545 3.03787 4.64477 3.03787C5.53271 3.03787 6.1796 2.89323 6.58938 2.60394 6.99518 2.32269 7.31258 1.81645 7.53759 1.07713L7.68223 0.627137Z" transform="matrix(1 0 0 1.00054 517.485 666.346)"/><path d="M2.74822-21.8735 17.9833-21.8735 17.9833-17.6146 8.38877-17.6146 8.38877-13.5324 17.4048-13.5324 17.4048-9.27354 8.38877-9.27354 8.38877-4.25929 18.3048-4.25929 18.3048-0.000411426 2.74771-0.000411426Z" transform="matrix(1 0 0 1.00054 547.486 666.346)"/><path d="M2.52317-22.7889 7.76248-22.7889 7.76248-10.3823 13.8053-16.4091 19.8964-16.4091 11.8767-8.87168 20.5231-0.00030857 14.1749-0.00030857 7.76237-6.84664 7.76237-0.00030857 2.52307-0.00030857Z" transform="matrix(1 0 0 1.00054 567.977 666.346)"/><path d="M10.334-13.0504C9.16482-13.0504 8.27686-12.6326 7.6661-11.7968 7.05534-10.9611 6.75004-9.75974 6.75004-8.19684 6.75004-6.6219 7.0554-5.41653 7.6661-4.58082 8.2768-3.74511 9.16472-3.3272 10.334-3.3272 11.4671-3.3272 12.3349-3.74506 12.9375-4.58082 13.5482-5.41653 13.8536-6.6219 13.8536-8.19684 13.8536-9.75974 13.5482-10.9611 12.9375-11.7968 12.3348-12.6325 11.467-13.0504 10.334-13.0504ZM10.334-16.8111C13.1505-16.8111 15.3523-16.0437 16.9393-14.5128 18.5224-12.9901 19.3179-10.8848 19.3179-8.19684 19.3179-5.49686 18.5224-3.38346 16.9393-1.86479 15.3523-0.341998 13.1505 0.417392 10.334 0.417392 7.4934 0.417392 5.27551-0.341977 3.68041-1.86479 2.0813-3.38357 1.28581-5.49686 1.28581-8.19684 1.28581-10.8848 2.08134-12.9902 3.68041-14.5128 5.27551-16.0437 7.4933-16.8111 10.334-16.8111Z" transform="matrix(1 0 0 1.00054 587.929 666.346)"/><path d="M2.74822-21.8735 12.1178-21.8735C14.9022-21.8735 17.0397-21.2507 18.5303-20.0092 20.0169-18.7757 20.7643-17.02 20.7643-14.7378 20.7643-12.4436 20.0169-10.6758 18.5303-9.43431 17.0397-8.20085 14.9023-7.58608 12.1178-7.58608L8.38929-7.58608 8.38929-0.000411426 2.74822-0.000411426ZM8.38929-17.7913 8.38929-11.6842 11.5232-11.6842C12.6161-11.6842 13.4558-11.9454 14.0464-12.4717 14.645-13.0061 14.9464-13.7614 14.9464-14.7377 14.9464-15.71 14.645-16.4614 14.0464-16.9877 13.4558-17.5221 12.6161-17.7913 11.5232-17.7913Z" transform="matrix(1 0 0 1.00054 618.983 666.346)"/><path d="M2.34636-6.38029 2.34636-16.4088 7.61776-16.4088 7.61776-14.7695C7.61776-13.8775 7.60972-12.7606 7.60169-11.4106 7.58963-10.0686 7.58562-9.17665 7.58562-8.72665 7.58562-7.40886 7.61776-6.46062 7.68204-5.88205 7.75436-5.30349 7.8749-4.8776 8.03561-4.61239 8.26061-4.26686 8.54186-4.00571 8.88739-3.8249 9.2289-3.64008 9.62667-3.5517 10.0766-3.5517 11.1695-3.5517 12.0252-3.96955 12.648-4.80531 13.2788-5.64102 13.5962-6.80618 13.5962-8.30881L13.5962-16.4088 18.8355-16.4088 18.8355-6.17139e-05 13.5962-6.17139e-05 13.5962-2.37862C12.8007-1.41434 11.961-0.7072 11.0731-0.257203 10.1932 0.192794 9.22484 0.417793 8.16418 0.417793 6.26772 0.417793 4.82135-0.160775 3.82487-1.31791 2.83648-2.48307 2.34631-4.17053 2.34631-6.3804Z" transform="matrix(1 0 0 1.00054 640.969 666.346)"/><path d="M14.7054-11.9406C14.2433-12.1536 13.7893-12.3103 13.3394-12.4067 12.8894-12.5111 12.4313-12.5674 11.9733-12.5674 10.6233-12.5674 9.58273-12.1335 8.85553-11.2656 8.12429-10.4058 7.76268-9.16829 7.76268-7.55313L7.76268 0.000442283 2.52338 0.000442283 2.52338-16.4083 7.76268-16.4083 7.76268-13.7083C8.43768-14.7891 9.20905-15.5766 10.077-16.0708 10.9528-16.561 12.0055-16.8101 13.2269-16.8101 13.4077-16.8101 13.6006-16.798 13.8055-16.7779 14.0064-16.7659 14.3037-16.7337 14.6894-16.6815Z" transform="matrix(1 0 0 1.00054 662.327 666.346)"/><path d="M19.012-9.99642 19.012 0 13.7406 0 13.7406-7.64995C13.7406-9.06423 13.7085-10.0365 13.6442-10.575 13.5799-11.1094 13.4714-11.5071 13.3227-11.7642 13.1178-12.1057 12.8406-12.3669 12.487-12.5517 12.1335-12.7446 11.7317-12.841 11.2817-12.841 10.1888-12.841 9.32502-12.4151 8.6942-11.5713 8.07144-10.7356 7.76207-9.56645 7.76207-8.06783L7.76207 3.0857e-05 2.52276 3.0857e-05 2.52276-16.4087 7.76207-16.4087 7.76207-14.0141C8.55358-14.9663 9.39327-15.6694 10.2852-16.1194 11.1732-16.5775 12.1535-16.8105 13.2263-16.8105 15.1228-16.8105 16.5571-16.2239 17.5334-15.0588 18.5178-13.9016 19.012-12.2142 19.012-9.99626Z" transform="matrix(1 0 0 1.00054 677.121 666.346)"/><path d="M10.334-13.0504C9.16482-13.0504 8.27686-12.6326 7.6661-11.7968 7.05534-10.9611 6.75004-9.75974 6.75004-8.19684 6.75004-6.6219 7.0554-5.41653 7.6661-4.58082 8.2768-3.74511 9.16472-3.3272 10.334-3.3272 11.4671-3.3272 12.3349-3.74506 12.9375-4.58082 13.5482-5.41653 13.8536-6.6219 13.8536-8.19684 13.8536-9.75974 13.5482-10.9611 12.9375-11.7968 12.3348-12.6325 11.467-13.0504 10.334-13.0504ZM10.334-16.8111C13.1505-16.8111 15.3523-16.0437 16.9393-14.5128 18.5224-12.9901 19.3179-10.8848 19.3179-8.19684 19.3179-5.49686 18.5224-3.38346 16.9393-1.86479 15.3523-0.341998 13.1505 0.417392 10.334 0.417392 7.4934 0.417392 5.27551-0.341977 3.68041-1.86479 2.0813-3.38357 1.28581-5.49686 1.28581-8.19684 1.28581-10.8848 2.08134-12.9902 3.68041-14.5128 5.27551-16.0437 7.4933-16.8111 10.334-16.8111Z" transform="matrix(1 0 0 1.00054 698.48 666.346)"/><path d="M17.7263-13.6768C18.3892-14.6933 19.1768-15.4688 20.0888-16.0071 21.0089-16.5415 22.0174-16.8107 23.1102-16.8107 24.9945-16.8107 26.429-16.2241 27.4173-15.059 28.4017-13.9018 28.8959-12.2144 28.8959-9.99647L28.8959-5.14283e-05 23.6245-5.14283e-05 23.6245-8.55 23.6245-8.95178C23.6325-9.08838 23.6406-9.28124 23.6406-9.53034 23.6406-10.6955 23.4678-11.5392 23.1263-12.0535 22.7928-12.5758 22.2424-12.841 21.4709-12.841 20.4745-12.841 19.703-12.4272 19.1566-11.6035 18.6182-10.7879 18.341-9.60267 18.3209-8.0518L18.3209-9.25709e-05 13.0495-9.25709e-05 13.0495-8.55004C13.0495-10.3701 12.8928-11.5393 12.5835-12.0535 12.2701-12.5759 11.7156-12.841 10.9121-12.841 9.90357-12.841 9.12811-12.4272 8.58173-11.6036 8.03531-10.7759 7.76209-9.59868 7.76209-8.06787L7.76209-1.02857e-05 2.4907-1.02857e-05 2.4907-16.4087 7.76209-16.4087 7.76209-14.0141C8.40495-14.9342 9.14428-15.6293 9.97988-16.1033 10.8156-16.5734 11.7356-16.8105 12.7442-16.8105 13.8772-16.8105 14.8816-16.5373 15.7495-15.9908 16.6174-15.4444 17.2763-14.673 17.7263-13.6766Z" transform="matrix(1 0 0 1.00054 719.091 666.346)"/><path d="M10.334-13.0504C9.16482-13.0504 8.27686-12.6326 7.6661-11.7968 7.05534-10.9611 6.75004-9.75974 6.75004-8.19684 6.75004-6.6219 7.0554-5.41653 7.6661-4.58082 8.2768-3.74511 9.16472-3.3272 10.334-3.3272 11.4671-3.3272 12.3349-3.74506 12.9375-4.58082 13.5482-5.41653 13.8536-6.6219 13.8536-8.19684 13.8536-9.75974 13.5482-10.9611 12.9375-11.7968 12.3348-12.6325 11.467-13.0504 10.334-13.0504ZM10.334-16.8111C13.1505-16.8111 15.3523-16.0437 16.9393-14.5128 18.5224-12.9901 19.3179-10.8848 19.3179-8.19684 19.3179-5.49686 18.5224-3.38346 16.9393-1.86479 15.3523-0.341998 13.1505 0.417392 10.334 0.417392 7.4934 0.417392 5.27551-0.341977 3.68041-1.86479 2.0813-3.38357 1.28581-5.49686 1.28581-8.19684 1.28581-10.8848 2.08134-12.9902 3.68041-14.5128 5.27551-16.0437 7.4933-16.8111 10.334-16.8111Z" transform="matrix(1 0 0 1.00054 750.35 666.346)"/><path d="M13.323-22.7889 13.323-19.3496 10.4141-19.3496C9.67484-19.3496 9.15248-19.213 8.85522-18.9478 8.56594-18.6786 8.42129-18.2125 8.42129-17.5496L8.42129-16.4085 12.9052-16.4085 12.9052-12.6639 8.42129-12.6639 8.42129-0.000185142 3.18199-0.000185142 3.18199-12.6639 0.578486-12.6639 0.578486-16.4085 3.18199-16.4085 3.18199-17.5496C3.18199-19.3375 3.68021-20.6553 4.6766-21.5032 5.67302-22.359 7.21592-22.7889 9.30514-22.7889Z" transform="matrix(1 0 0 1.00054 352.002 696.363)"/><path d="M14.7054-11.9406C14.2433-12.1536 13.7893-12.3103 13.3394-12.4067 12.8894-12.5111 12.4313-12.5674 11.9733-12.5674 10.6233-12.5674 9.58273-12.1335 8.85553-11.2656 8.12429-10.4058 7.76268-9.16829 7.76268-7.55313L7.76268 0.000442283 2.52338 0.000442283 2.52338-16.4083 7.76268-16.4083 7.76268-13.7083C8.43768-14.7891 9.20905-15.5766 10.077-16.0708 10.9528-16.561 12.0055-16.8101 13.2269-16.8101 13.4077-16.8101 13.6006-16.798 13.8055-16.7779 14.0064-16.7659 14.3037-16.7337 14.6894-16.6815Z" transform="matrix(1 0 0 1.00054 365.052 696.363)"/><path d="M10.334-13.0504C9.16482-13.0504 8.27686-12.6326 7.6661-11.7968 7.05534-10.9611 6.75004-9.75974 6.75004-8.19684 6.75004-6.6219 7.0554-5.41653 7.6661-4.58082 8.2768-3.74511 9.16472-3.3272 10.334-3.3272 11.4671-3.3272 12.3349-3.74506 12.9375-4.58082 13.5482-5.41653 13.8536-6.6219 13.8536-8.19684 13.8536-9.75974 13.5482-10.9611 12.9375-11.7968 12.3348-12.6325 11.467-13.0504 10.334-13.0504ZM10.334-16.8111C13.1505-16.8111 15.3523-16.0437 16.9393-14.5128 18.5224-12.9901 19.3179-10.8848 19.3179-8.19684 19.3179-5.49686 18.5224-3.38346 16.9393-1.86479 15.3523-0.341998 13.1505 0.417392 10.334 0.417392 7.4934 0.417392 5.27551-0.341977 3.68041-1.86479 2.0813-3.38357 1.28581-5.49686 1.28581-8.19684 1.28581-10.8848 2.08134-12.9902 3.68041-14.5128 5.27551-16.0437 7.4933-16.8111 10.334-16.8111Z" transform="matrix(1 0 0 1.00054 379.85 696.363)"/><path d="M17.7263-13.6768C18.3892-14.6933 19.1768-15.4688 20.0888-16.0071 21.0089-16.5415 22.0174-16.8107 23.1102-16.8107 24.9945-16.8107 26.429-16.2241 27.4173-15.059 28.4017-13.9018 28.8959-12.2144 28.8959-9.99647L28.8959-5.14283e-05 23.6245-5.14283e-05 23.6245-8.55 23.6245-8.95178C23.6325-9.08838 23.6406-9.28124 23.6406-9.53034 23.6406-10.6955 23.4678-11.5392 23.1263-12.0535 22.7928-12.5758 22.2424-12.841 21.4709-12.841 20.4745-12.841 19.703-12.4272 19.1566-11.6035 18.6182-10.7879 18.341-9.60267 18.3209-8.0518L18.3209-9.25709e-05 13.0495-9.25709e-05 13.0495-8.55004C13.0495-10.3701 12.8928-11.5393 12.5835-12.0535 12.2701-12.5759 11.7156-12.841 10.9121-12.841 9.90357-12.841 9.12811-12.4272 8.58173-11.6036 8.03531-10.7759 7.76209-9.59868 7.76209-8.06787L7.76209-1.02857e-05 2.4907-1.02857e-05 2.4907-16.4087 7.76209-16.4087 7.76209-14.0141C8.40495-14.9342 9.14428-15.6293 9.97988-16.1033 10.8156-16.5734 11.7356-16.8105 12.7442-16.8105 13.8772-16.8105 14.8816-16.5373 15.7495-15.9908 16.6174-15.4444 17.2763-14.673 17.7263-13.6766Z" transform="matrix(1 0 0 1.00054 400.457 696.363)"/><path d="M8.24457-21.0691 8.24457-16.4085 13.6606-16.4085 13.6606-12.6639 8.24457-12.6639 8.24457-5.70504C8.24457-4.94165 8.39322-4.42334 8.69456-4.14615 9.00393-3.87695 9.61062-3.74437 10.5106-3.74437L13.1945-3.74437 13.1945 0.000226284 8.71061 0.000226284C6.62941 0.000226284 5.15887-0.425661 4.29097-1.28548 3.43115-2.15333 3.00526-3.62382 3.00526-5.70512L3.00526-12.664 0.401758-12.664 0.401758-16.4086 3.00526-16.4086 3.00526-21.0692Z" transform="matrix(1 0 0 1.00054 442.162 696.363)"/><path d="M19.012-9.99642 19.012 0 13.7406 0 13.7406-7.61776C13.7406-9.05209 13.7085-10.0365 13.6442-10.5749 13.5799-11.1093 13.4714-11.507 13.3227-11.7641 13.1178-12.1056 12.8406-12.3668 12.487-12.5516 12.1335-12.7445 11.7317-12.8409 11.2817-12.8409 10.1888-12.8409 9.32502-12.415 8.6942-11.5712 8.07144-10.7355 7.76207-9.56634 7.76207-8.06773L7.76207 0.000133713 2.52276 0.000133713 2.52276-22.7888 7.76207-22.7888 7.76207-14.0139C8.55358-14.9661 9.39327-15.6692 10.2852-16.1192 11.1732-16.5773 12.1535-16.8103 13.2263-16.8103 15.1228-16.8103 16.5571-16.2237 17.5334-15.0586 18.5178-13.9014 19.012-12.214 19.012-9.99606Z" transform="matrix(1 0 0 1.00054 456.502 696.363)"/><path d="M18.8999-8.24457 18.8999-6.74996 6.63733-6.74996C6.7659-5.5165 7.20786-4.59635 7.97128-3.98569 8.73065-3.37498 9.79533-3.06963 11.1695-3.06963 12.2704-3.06963 13.4034-3.23034 14.5606-3.55177 15.7177-3.88123 16.9069-4.37945 18.1285-5.04638L18.1285-0.996402C16.883-0.522295 15.6414-0.168726 14.3999 0.0642545 13.1544 0.297286 11.9169 0.417824 10.6874 0.417824 7.70621 0.417824 5.39194-0.329491 3.74459-1.83216 2.10527-3.34292 1.28571-5.46423 1.28571-8.19641 1.28571-10.8643 2.09329-12.9615 3.7125-14.4964 5.32766-16.0392 7.55358-16.8106 10.3821-16.8106 12.9616-16.8106 15.0267-16.0312 16.5696-14.4803 18.1204-12.9254 18.8999-10.8483 18.8999-8.24465ZM13.516-9.99632C13.516-10.9927 13.2186-11.7963 12.632-12.4071 12.0535-13.0178 11.2981-13.3231 10.366-13.3231 9.34547-13.3231 8.51777-13.0338 7.87492-12.4553 7.2401-11.8847 6.85038-11.0651 6.70174-9.99639Z" transform="matrix(1 0 0 1.00054 477.861 696.363)"/><path d="M2.74822-21.8735 9.04818-21.8735 17.0035-6.87904 17.0035-21.8735 22.3552-21.8735 22.3552 0 16.0553 0 8.09995-15.0109 8.09995 0 2.74822 0Z" transform="matrix(1 0 0 1.00054 508.653 696.363)"/><path d="M10.334-13.0504C9.16482-13.0504 8.27686-12.6326 7.6661-11.7968 7.05534-10.9611 6.75004-9.75974 6.75004-8.19684 6.75004-6.6219 7.0554-5.41653 7.6661-4.58082 8.2768-3.74511 9.16472-3.3272 10.334-3.3272 11.4671-3.3272 12.3349-3.74506 12.9375-4.58082 13.5482-5.41653 13.8536-6.6219 13.8536-8.19684 13.8536-9.75974 13.5482-10.9611 12.9375-11.7968 12.3348-12.6325 11.467-13.0504 10.334-13.0504ZM10.334-16.8111C13.1505-16.8111 15.3523-16.0437 16.9393-14.5128 18.5224-12.9901 19.3179-10.8848 19.3179-8.19684 19.3179-5.49686 18.5224-3.38346 16.9393-1.86479 15.3523-0.341998 13.1505 0.417392 10.334 0.417392 7.4934 0.417392 5.27551-0.341977 3.68041-1.86479 2.0813-3.38357 1.28581-5.49686 1.28581-8.19684 1.28581-10.8848 2.08134-12.9902 3.68041-14.5128 5.27551-16.0437 7.4933-16.8111 10.334-16.8111Z" transform="matrix(1 0 0 1.00054 533.761 696.363)"/><path d="M2.34636-6.38029 2.34636-16.4088 7.61776-16.4088 7.61776-14.7695C7.61776-13.8775 7.60972-12.7606 7.60169-11.4106 7.58963-10.0686 7.58562-9.17665 7.58562-8.72665 7.58562-7.40886 7.61776-6.46062 7.68204-5.88205 7.75436-5.30349 7.8749-4.8776 8.03561-4.61239 8.26061-4.26686 8.54186-4.00571 8.88739-3.8249 9.2289-3.64008 9.62667-3.5517 10.0766-3.5517 11.1695-3.5517 12.0252-3.96955 12.648-4.80531 13.2788-5.64102 13.5962-6.80618 13.5962-8.30881L13.5962-16.4088 18.8355-16.4088 18.8355-6.17139e-05 13.5962-6.17139e-05 13.5962-2.37862C12.8007-1.41434 11.961-0.7072 11.0731-0.257203 10.1932 0.192794 9.22484 0.417793 8.16418 0.417793 6.26772 0.417793 4.82135-0.160775 3.82487-1.31791 2.83648-2.48307 2.34631-4.17053 2.34631-6.3804Z" transform="matrix(1 0 0 1.00054 554.368 696.363)"/><path d="M19.012-9.99642 19.012 0 13.7406 0 13.7406-7.64995C13.7406-9.06423 13.7085-10.0365 13.6442-10.575 13.5799-11.1094 13.4714-11.5071 13.3227-11.7642 13.1178-12.1057 12.8406-12.3669 12.487-12.5517 12.1335-12.7446 11.7317-12.841 11.2817-12.841 10.1888-12.841 9.32502-12.4151 8.6942-11.5713 8.07144-10.7356 7.76207-9.56645 7.76207-8.06783L7.76207 3.0857e-05 2.52276 3.0857e-05 2.52276-16.4087 7.76207-16.4087 7.76207-14.0141C8.55358-14.9663 9.39327-15.6694 10.2852-16.1194 11.1732-16.5775 12.1535-16.8105 13.2263-16.8105 15.1228-16.8105 16.5571-16.2239 17.5334-15.0588 18.5178-13.9016 19.012-12.2142 19.012-9.99626Z" transform="matrix(1 0 0 1.00054 575.727 696.363)"/><path d="M2.74822-21.8735 12.1178-21.8735C14.9022-21.8735 17.0397-21.2507 18.5303-20.0092 20.0169-18.7757 20.7643-17.02 20.7643-14.7378 20.7643-12.4436 20.0169-10.6758 18.5303-9.43431 17.0397-8.20085 14.9023-7.58608 12.1178-7.58608L8.38929-7.58608 8.38929-0.000411426 2.74822-0.000411426ZM8.38929-17.7913 8.38929-11.6842 11.5232-11.6842C12.6161-11.6842 13.4558-11.9454 14.0464-12.4717 14.645-13.0061 14.9464-13.7614 14.9464-14.7377 14.9464-15.71 14.645-16.4614 14.0464-16.9877 13.4558-17.5221 12.6161-17.7913 11.5232-17.7913Z" transform="matrix(1 0 0 1.00054 607.528 696.363)"/><path d="M14.7054-11.9406C14.2433-12.1536 13.7893-12.3103 13.3394-12.4067 12.8894-12.5111 12.4313-12.5674 11.9733-12.5674 10.6233-12.5674 9.58273-12.1335 8.85553-11.2656 8.12429-10.4058 7.76268-9.16829 7.76268-7.55313L7.76268 0.000442283 2.52338 0.000442283 2.52338-16.4083 7.76268-16.4083 7.76268-13.7083C8.43768-14.7891 9.20905-15.5766 10.077-16.0708 10.9528-16.561 12.0055-16.8101 13.2269-16.8101 13.4077-16.8101 13.6006-16.798 13.8055-16.7779 14.0064-16.7659 14.3037-16.7337 14.6894-16.6815Z" transform="matrix(1 0 0 1.00054 629.514 696.363)"/><path d="M10.334-13.0504C9.16482-13.0504 8.27686-12.6326 7.6661-11.7968 7.05534-10.9611 6.75004-9.75974 6.75004-8.19684 6.75004-6.6219 7.0554-5.41653 7.6661-4.58082 8.2768-3.74511 9.16472-3.3272 10.334-3.3272 11.4671-3.3272 12.3349-3.74506 12.9375-4.58082 13.5482-5.41653 13.8536-6.6219 13.8536-8.19684 13.8536-9.75974 13.5482-10.9611 12.9375-11.7968 12.3348-12.6325 11.467-13.0504 10.334-13.0504ZM10.334-16.8111C13.1505-16.8111 15.3523-16.0437 16.9393-14.5128 18.5224-12.9901 19.3179-10.8848 19.3179-8.19684 19.3179-5.49686 18.5224-3.38346 16.9393-1.86479 15.3523-0.341998 13.1505 0.417392 10.334 0.417392 7.4934 0.417392 5.27551-0.341977 3.68041-1.86479 2.0813-3.38357 1.28581-5.49686 1.28581-8.19684 1.28581-10.8848 2.08134-12.9902 3.68041-14.5128 5.27551-16.0437 7.4933-16.8111 10.334-16.8111Z" transform="matrix(1 0 0 1.00054 644.311 696.363)"/><path d="M2.52317-16.4087 7.76248-16.4087 7.76248-0.289027C7.76248 1.9047 7.23213 3.58414 6.17139 4.74127 5.11876 5.89841 3.59195 6.47698 1.59109 6.47698L-0.996371 6.47698-0.996371 3.03766-0.0803104 3.03766C0.916112 3.03766 1.59512 2.81266 1.96077 2.36267 2.33443 1.91267 2.52328 1.02872 2.52328-0.289078ZM2.52317-22.789 7.76248-22.789 7.76248-18.5141 2.52317-18.5141Z" transform="matrix(1 0 0 1.00054 664.919 696.363)"/><path d="M18.8999-8.24457 18.8999-6.74996 6.63733-6.74996C6.7659-5.5165 7.20786-4.59635 7.97128-3.98569 8.73065-3.37498 9.79533-3.06963 11.1695-3.06963 12.2704-3.06963 13.4034-3.23034 14.5606-3.55177 15.7177-3.88123 16.9069-4.37945 18.1285-5.04638L18.1285-0.996402C16.883-0.522295 15.6414-0.168726 14.3999 0.0642545 13.1544 0.297286 11.9169 0.417824 10.6874 0.417824 7.70621 0.417824 5.39194-0.329491 3.74459-1.83216 2.10527-3.34292 1.28571-5.46423 1.28571-8.19641 1.28571-10.8643 2.09329-12.9615 3.7125-14.4964 5.32766-16.0392 7.55358-16.8106 10.3821-16.8106 12.9616-16.8106 15.0267-16.0312 16.5696-14.4803 18.1204-12.9254 18.8999-10.8483 18.8999-8.24465ZM13.516-9.99632C13.516-10.9927 13.2186-11.7963 12.632-12.4071 12.0535-13.0178 11.2981-13.3231 10.366-13.3231 9.34547-13.3231 8.51777-13.0338 7.87492-12.4553 7.2401-11.8847 6.85038-11.0651 6.70174-9.99639Z" transform="matrix(1 0 0 1.00054 675.205 696.363)"/><path d="M15.7823-15.8944 15.7823-11.6195C15.0631-12.1016 14.344-12.4592 13.6287-12.6963 12.9095-12.9293 12.1662-13.0499 11.3948-13.0499 9.92421-13.0499 8.78312-12.62 7.97158-11.7642 7.15596-10.9164 6.75016-9.72709 6.75016-8.19627 6.75016-6.65343 7.15596-5.45206 7.97158-4.5963 8.78318-3.74853 9.92421-3.32664 11.3948-3.32664 12.2184-3.32664 12.9939-3.44717 13.7251-3.69628 14.4643-3.94137 15.1474-4.29896 15.7822-4.77309L15.7822-0.482016C14.9545-0.180678 14.1188 0.0402992 13.2751 0.192979 12.4394 0.341638 11.5916 0.417978 10.7358 0.417978 7.77863 0.417978 5.46435-0.33738 3.79294-1.84805 2.12152-3.36683 1.28581-5.48424 1.28581-8.19625 1.28581-10.8962 2.12152-13.0056 3.79294-14.5283 5.46435-16.0471 7.77863-16.8105 10.7358-16.8105 11.5915-16.8105 12.4393-16.7301 13.2751-16.5694 14.1108-16.4167 14.9465-16.1917 15.7822-15.8944Z" transform="matrix(1 0 0 1.00054 695.551 696.363)"/><path d="M8.24457-21.0691 8.24457-16.4085 13.6606-16.4085 13.6606-12.6639 8.24457-12.6639 8.24457-5.70504C8.24457-4.94165 8.39322-4.42334 8.69456-4.14615 9.00393-3.87695 9.61062-3.74437 10.5106-3.74437L13.1945-3.74437 13.1945 0.000226284 8.71061 0.000226284C6.62941 0.000226284 5.15887-0.425661 4.29097-1.28548 3.43115-2.15333 3.00526-3.62382 3.00526-5.70512L3.00526-12.664 0.401758-12.664 0.401758-16.4086 3.00526-16.4086 3.00526-21.0692Z" transform="matrix(1 0 0 1.00054 713.334 696.363)"/></g></svg>