<svg width="720" height="603" xmlns="http://www.w3.org/2000/svg" xmlns:xlink="http://www.w3.org/1999/xlink" xml:space="preserve" overflow="hidden"><defs><clipPath id="clip0"><rect x="280" y="-14" width="720" height="603"/></clipPath></defs><g clip-path="url(#clip0)" transform="translate(-280 14)"><path d="M232.694 479.664C222.737 479.664 214.633 487.768 214.633 497.725 214.633 507.681 222.737 515.781 232.694 515.781 242.65 515.781 250.754 507.681 250.754 497.725 250.754 487.768 242.65 479.664 232.694 479.664ZM232.694 506.588C227.804 506.588 223.826 502.61 223.826 497.725 223.826 492.835 227.804 488.857 232.694 488.857 237.583 488.857 241.561 492.835 241.561 497.725 241.561 502.614 237.583 506.588 232.694 506.588Z" transform="matrix(1 0 0 1.00139 280 -14)"/><path d="M635.75 529.046 581.983 529.046C579.448 529.046 577.387 531.103 577.387 533.642 577.387 536.177 579.444 538.239 581.983 538.239L635.75 538.239C638.285 538.239 640.346 536.182 640.346 533.642 640.346 531.103 638.285 529.046 635.75 529.046Z" transform="matrix(1 0 0 1.00139 280 -14)"/><path d="M138.024 529.046 84.2575 529.046C81.7223 529.046 79.661 531.103 79.661 533.642 79.661 536.177 81.7181 538.239 84.2575 538.239L138.024 538.239C140.559 538.239 142.62 536.182 142.62 533.642 142.62 531.103 140.563 529.046 138.024 529.046Z" transform="matrix(1 0 0 1.00139 280 -14)"/><path d="M560.078 529.046 271.337 529.046C272.253 527.27 272.848 525.329 273.081 523.264L412.689 523.264C431.199 523.264 446.254 508.209 446.254 489.699L446.258 403.841C446.258 385.335 431.203 370.279 412.693 370.279L362.313 370.279C402.974 274.429 324.328 268.306 324.328 303.186L324.328 314.078C324.328 317.281 323.139 320.342 320.981 322.705L273.173 375.017C272.655 366.177 265.367 359.126 256.403 359.126L208.968 359.126C199.671 359.126 192.097 366.692 192.097 375.997L192.097 521.375C192.097 524.156 192.837 526.739 194.034 529.053L159.91 529.053C157.375 529.053 155.314 531.111 155.314 533.65 155.314 536.185 157.371 538.246 159.91 538.246L560.076 538.246C562.611 538.246 564.672 536.189 564.672 533.65 564.668 531.107 562.611 529.049 560.072 529.049ZM273.271 388.533 327.769 328.903C340.132 315.375 326.29 297.945 340.622 293.651L342.137 293.189C348.449 291.614 355.733 294.937 359.264 300.919 374.235 326.168 351.301 372.344 351.068 372.807 351.036 372.875 351.052 372.952 351.024 373.016 350.738 373.655 350.562 374.338 350.586 375.049 350.59 375.105 350.622 375.158 350.626 375.218 350.666 375.748 350.762 376.283 350.996 376.797 351.104 377.03 361.61 400.374 352.743 421.765 347.464 434.498 336.274 444.105 319.483 450.316 317.097 451.192 315.883 453.836 316.763 456.218 317.446 458.075 319.206 459.22 321.07 459.22 321.605 459.22 322.143 459.131 322.662 458.935 341.955 451.799 354.933 440.473 361.229 425.281 368.654 407.377 364.769 388.96 361.755 379.473L412.69 379.473C426.129 379.473 437.062 390.406 437.062 403.841L437.062 489.699C437.062 503.138 426.129 514.071 412.69 514.071L273.267 514.071ZM264.082 386.749 264.082 521.368C264.082 525.603 260.635 529.046 256.404 529.046L208.969 529.046C204.738 529.046 201.291 525.603 201.291 521.368L201.291 376C201.291 371.693 204.666 368.322 208.969 368.322L256.404 368.322C260.635 368.322 264.082 371.765 264.082 376Z" transform="matrix(1 0 0 1.00139 280 -14)"/><path d="M391.371 293.184 449.675 351.488C450.571 352.384 451.744 352.834 452.926 352.834 454.103 352.834 455.276 352.384 456.176 351.488L514.479 293.184C523.138 284.53 527.903 273.022 527.903 260.784 527.903 248.546 523.138 237.034 514.479 228.384 497.525 211.425 470.801 210.629 452.926 225.427 435.046 210.625 408.324 211.433 391.372 228.384 373.505 246.247 373.505 275.317 391.372 293.184ZM449.675 234.88C451.399 236.604 454.452 236.604 456.172 234.88 470.464 220.588 493.634 220.537 507.974 234.88 514.893 241.799 518.702 251 518.702 260.784 518.702 270.567 514.889 279.764 507.974 286.688L452.922 341.74 397.869 286.688C383.586 272.404 383.586 249.165 397.869 234.886 412.161 220.594 435.332 220.542 449.675 234.882Z" transform="matrix(1 0 0 1.00139 280 -14)"/><path d="M328.299 119.417C318.837 115.48 308.82 113.483 298.523 113.483 255.431 113.483 220.372 148.543 220.372 191.638 220.372 234.701 255.432 269.737 298.523 269.737 341.591 269.737 376.627 234.702 376.627 191.638 376.627 181.4 374.654 171.387 370.757 161.885 369.793 159.539 367.101 158.422 364.762 159.378 362.412 160.342 361.287 163.026 362.247 165.373 365.686 173.762 367.434 182.597 367.434 191.637 367.434 229.634 336.52 260.548 298.524 260.548 260.503 260.548 229.565 229.634 229.565 191.637 229.565 153.612 260.503 122.675 298.524 122.675 307.608 122.675 316.435 124.435 324.769 127.902 327.079 128.866 329.795 127.769 330.776 125.423 331.756 123.081 330.647 120.393 328.301 119.416Z" transform="matrix(1 0 0 1.00139 280 -14)"/><path d="M294.809 181.111C276.158 168.338 271.819 159.928 266.869 164.67L253.98 177.074C252.152 178.834 252.1 181.759 253.868 183.583L299.112 230.29C299.984 231.186 301.181 231.688 302.415 231.688 302.624 231.688 302.841 231.672 303.054 231.644 304.5 231.439 305.778 230.555 306.465 229.258 306.831 228.57 343.422 160.532 369.621 143.621 370.674 142.942 371.405 141.861 371.638 140.627 371.879 139.394 371.598 138.12 370.871 137.096L364.302 127.851C362.871 125.838 360.087 125.315 358.014 126.685 356.085 127.971 312.929 156.747 294.809 181.111ZM359.424 136.859 360.73 138.695C337.615 156.715 310.402 203.298 301.386 219.429L263.679 180.504 270.405 174.031C315.417 207.175 274.591 195.595 359.425 136.858Z" transform="matrix(1 0 0 1.00139 280 -14)"/><path d="M453.878 197.547C454.513 197.857 455.2 198.009 455.887 198.009 456.57 198.009 457.257 197.857 457.892 197.551 494.623 179.777 519.887 141.579 519.887 98.2182L519.887 64.336C519.887 61.9374 518.042 59.9405 515.652 59.7557 472.178 56.3526 459.767 39.8508 459.679 39.7346 458.831 38.5011 457.425 37.7819 455.934 37.7658 454.488 37.6975 453.013 38.4769 452.142 39.6863 452.017 39.8551 439.594 56.3481 395.979 59.7558 393.585 59.9406 391.745 61.9375 391.745 64.3361L391.745 98.2183C391.741 140.86 415.551 178.921 453.876 197.547ZM400.93 68.5337C433.503 65.2511 449.37 54.8331 455.887 48.9867 462.391 54.8327 478.226 65.2474 510.694 68.5296L510.694 98.209C510.694 137.427 488.198 171.716 455.887 188.27 421.927 170.856 400.93 136.556 400.93 98.209Z" transform="matrix(1 0 0 1.00139 280 -14)"/><path d="M436.67 150.521 474.96 150.521C480.573 150.521 485.146 145.953 485.146 140.34L485.146 108.948C485.146 105.111 482.261 102.057 478.576 101.507L478.576 93.5716C478.576 81.02 468.367 70.8104 455.811 70.8104 449.72 70.8104 443.999 73.1729 439.668 77.4961 435.401 81.8595 433.054 87.5689 433.054 93.5675L433.054 101.503C429.366 102.053 426.485 105.103 426.485 108.944L426.485 140.332C426.485 145.949 431.057 150.521 436.67 150.521ZM442.247 93.5722C442.247 89.9843 443.665 86.5571 446.2 83.9615 448.756 81.4101 452.167 80.0038 455.811 80.0038 463.296 80.0038 469.383 86.0909 469.383 93.5717L469.383 101.266 442.246 101.266ZM435.673 110.48 475.952 110.48 475.952 140.336C475.952 140.883 475.51 141.325 474.96 141.325L436.669 141.325C436.119 141.325 435.677 140.883 435.677 140.336Z" transform="matrix(1 0 0 1.00139 280 -14)"/><path d="M20.5231-1.22143C19.4624-0.675 18.3574-0.261165 17.2123 0.0160457 16.0632 0.293277 14.87 0.433903 13.6284 0.433903 9.90782 0.433903 6.96271-0.602691 4.78903-2.6839 2.61134-4.7611 1.5265-7.57764 1.5265-11.1375 1.5265-14.7135 2.61134-17.542 4.78903-19.6232 6.96271-21.7004 9.90782-22.741 13.6284-22.741 14.8699-22.741 16.0632-22.5964 17.2123-22.3071 18.3574-22.0259 19.4623-21.616 20.5231-21.0696L20.5231-16.4571C19.4503-17.1843 18.3936-17.7147 17.357-18.0482 16.3285-18.3897 15.2396-18.5625 14.0945-18.5625 12.0374-18.5625 10.4182-17.9036 9.24089-16.5857 8.05968-15.2679 7.47298-13.4517 7.47298-11.1374 7.47298-8.83118 8.05959-7.02316 9.24089-5.70535 10.4181-4.39557 12.0374-3.74469 14.0945-3.74469 15.2396-3.74469 16.3285-3.90943 17.357-4.24291 18.3936-4.58443 19.4504-5.1188 20.5231-5.85005Z" transform="matrix(1 0 0 1.00139 352 654.843)"/><path d="M15.011-12.1824C14.5489-12.4074 14.0829-12.5721 13.6127-12.6806 13.1507-12.7851 12.6846-12.8413 12.2145-12.8413 10.8404-12.8413 9.77966-12.3954 9.0323-11.5074 8.29301-10.6275 7.92339-9.36188 7.92339-7.71452L7.92339-0.000236571 2.57163-0.000236571 2.57163-16.7464 7.92339-16.7464 7.92339-13.9982C8.60643-15.091 9.39394-15.8865 10.2859-16.3928 11.1859-16.895 12.2547-17.1481 13.5002-17.1481 13.681-17.1481 13.8739-17.1401 14.0788-17.1321 14.2917-17.12 14.5971-17.0879 14.9948-17.0356Z" transform="matrix(1 0 0 1.00139 374.484 654.843)"/><path d="M19.3022-8.42143 19.3022-6.89462 6.7824-6.89462C6.91097-5.64099 7.36097-4.69687 8.1324-4.06605 8.91186-3.44328 10.0007-3.1339 11.3949-3.1339 12.52-3.1339 13.669-3.29864 14.8503-3.63212 16.0395-3.96158 17.253-4.46784 18.4985-5.14289L18.4985-1.01256C17.2329-0.538447 15.9673-0.180864 14.7057 0.0642549 13.44 0.309343 12.1705 0.433903 10.8968 0.433903 7.87536 0.433903 5.52086-0.337526 3.84141-1.88038 2.15794-3.42324 1.31822-5.58087 1.31822-8.35719 1.31822-11.0893 2.14188-13.2349 3.79317-14.8018 5.44053-16.3647 7.71459-17.1482 10.6075-17.1482 13.2432-17.1482 15.3485-16.3527 16.9235-14.7696 18.5066-13.1947 19.3021-11.0773 19.3021-8.42138ZM13.7896-10.2054C13.7896-11.2219 13.4883-12.0416 12.8896-12.6643 12.299-13.283 11.5276-13.5964 10.5754-13.5964 9.53475-13.5964 8.68701-13.2991 8.03602-12.7125 7.39317-12.1339 6.99141-11.2982 6.83064-10.2054Z" transform="matrix(1 0 0 1.00139 389.595 654.843)"/><path d="M10.0768-7.53748C8.95989-7.53748 8.12016-7.34462 7.55362-6.9589 6.99514-6.58122 6.71791-6.02676 6.71791-5.28747 6.71791-4.61247 6.94291-4.08209 7.39291-3.69638 7.85094-3.3187 8.48577-3.13387 9.28939-3.13387 10.2939-3.13387 11.1416-3.49147 11.8287-4.21068 12.5118-4.92586 12.8573-5.83387 12.8573-6.92673L12.8573-7.53744ZM18.2571-9.56253 18.2571 0 12.8571 0 12.8571-2.47495C12.1379-1.46647 11.3303-0.7272 10.4303-0.257143 9.53837 0.20089 8.45352 0.433934 7.16781 0.433934 5.43209 0.433934 4.02182-0.0682971 2.94099-1.07683 1.85616-2.09335 1.31781-3.41118 1.31781-5.03046 1.31781-6.99112 1.99281-8.42556 3.34286-9.3376 4.69286-10.2577 6.81429-10.7198 9.70714-10.7198L12.8571-10.7198 12.8571-11.1376C12.8571-11.9814 12.5237-12.6042 11.8607-13.0019 11.1937-13.3957 10.1572-13.5966 8.74291-13.5966 7.58577-13.5966 6.51297-13.476 5.52862-13.243 4.54023-13.018 3.62412-12.6725 2.78038-12.2144L2.78038-16.2966C3.92549-16.5739 5.07862-16.7828 6.23577-16.9234 7.39291-17.0721 8.55005-17.1484 9.70719-17.1484 12.7286-17.1484 14.9063-16.5538 16.2483-15.3645 17.5863-14.1752 18.2572-12.2385 18.2572-9.5627Z" transform="matrix(1 0 0 1.00139 410.375 654.843)"/><path d="M8.42143-21.5033 8.42143-16.7462 13.934-16.7462 13.934-12.9211 8.42143-12.9211 8.42143-5.8176C8.42143-5.03412 8.57411-4.50381 8.8875-4.2265 9.19687-3.95731 9.80758-3.82472 10.7196-3.82472L13.4839-3.82472 13.4839 0.000329143 8.88739 0.000329143C6.77399 0.000329143 5.27536-0.437616 4.38739-1.31748 3.50748-2.20542 3.06959-3.70407 3.06959-5.81748L3.06959-12.921 0.401678-12.921 0.401678-16.746 3.06959-16.746 3.06959-21.5032Z" transform="matrix(1 0 0 1.00139 431.047 654.843)"/><path d="M19.3022-8.42143 19.3022-6.89462 6.7824-6.89462C6.91097-5.64099 7.36097-4.69687 8.1324-4.06605 8.91186-3.44328 10.0007-3.1339 11.3949-3.1339 12.52-3.1339 13.669-3.29864 14.8503-3.63212 16.0395-3.96158 17.253-4.46784 18.4985-5.14289L18.4985-1.01256C17.2329-0.538447 15.9673-0.180864 14.7057 0.0642549 13.44 0.309343 12.1705 0.433903 10.8968 0.433903 7.87536 0.433903 5.52086-0.337526 3.84141-1.88038 2.15794-3.42324 1.31822-5.58087 1.31822-8.35719 1.31822-11.0893 2.14188-13.2349 3.79317-14.8018 5.44053-16.3647 7.71459-17.1482 10.6075-17.1482 13.2432-17.1482 15.3485-16.3527 16.9235-14.7696 18.5066-13.1947 19.3021-11.0773 19.3021-8.42138ZM13.7896-10.2054C13.7896-11.2219 13.4883-12.0416 12.8896-12.6643 12.299-13.283 11.5276-13.5964 10.5754-13.5964 9.53475-13.5964 8.68701-13.2991 8.03602-12.7125 7.39317-12.1339 6.99141-11.2982 6.83064-10.2054Z" transform="matrix(1 0 0 1.00139 445.696 654.843)"/><path d="M13.9659-14.3033 13.9659-23.2712 19.3499-23.2712 19.3499 0.000205714 13.9659 0.000205714 13.9659-2.42661C13.2267-1.43821 12.4111-0.71496 11.5231-0.256937 10.6432 0.201096 9.61858 0.434139 8.45342 0.434139 6.38424 0.434139 4.68463-0.385509 3.3588-2.02476 2.04099-3.6641 1.38199-5.77339 1.38199-8.35686 1.38199-10.9363 2.04091-13.0497 3.3588-14.6889 4.68473-16.3283 6.38424-17.1479 8.45342-17.1479 9.61056-17.1479 10.6311-16.9148 11.5231-16.4568 12.411-15.9947 13.2266-15.2756 13.9659-14.3032ZM10.4463-3.45497C11.5914-3.45497 12.4632-3.87283 13.0659-4.70859 13.6646-5.54431 13.9659-6.75771 13.9659-8.35683 13.9659-9.95194 13.6646-11.1694 13.0659-12.0051 12.4633-12.8408 11.5914-13.2587 10.4463-13.2587 9.30919-13.2587 8.43737-12.8408 7.82661-12.0051 7.22393-11.1694 6.92661-9.95194 6.92661-8.35683 6.92661-6.75771 7.22393-5.54431 7.82661-4.70859 8.43732-3.87288 9.30919-3.45497 10.4463-3.45497Z" transform="matrix(1 0 0 1.00139 466.473 654.843)"/><path d="M11.4912-3.45538C12.6363-3.45538 13.5081-3.87324 14.1109-4.70901 14.7095-5.54472 15.0109-6.75813 15.0109-8.35725 15.0109-9.95236 14.7095-11.1698 14.1109-12.0055 13.5082-12.8412 12.6363-13.2591 11.4912-13.2591 10.3421-13.2591 9.45813-12.8332 8.83944-11.9894 8.22873-11.1537 7.92337-9.94032 7.92337-8.35735 7.92337-6.77026 8.22874-5.55285 8.83944-4.70911 9.45819-3.87339 10.3421-3.45549 11.4912-3.45549ZM7.92329-14.3037C8.66258-15.276 9.48219-15.9952 10.3822-16.4573 11.2822-16.9154 12.3148-17.1484 13.484-17.1484 15.5411-17.1484 17.2326-16.3288 18.5625-14.6895 19.8885-13.0502 20.5554-10.9369 20.5554-8.35743 20.5554-5.77397 19.8884-3.66457 18.5625-2.02534 17.2326-0.386002 15.5411 0.433563 13.484 0.433563 12.3148 0.433563 11.2822 0.20053 10.3822-0.257513 9.48219-0.727601 8.66253-1.45086 7.92329-2.42718L7.92329-0.000370286 2.57153-0.000370286 2.57153-23.2718 7.92329-23.2718Z" transform="matrix(1 0 0 1.00139 499.074 654.843)"/><path d="M0.369648-16.7462 5.72141-16.7462 10.2375-5.38354 14.0625-16.7462 19.4143-16.7462 12.3749 1.5912C11.6678 3.45549 10.8401 4.75725 9.89998 5.49658 8.95578 6.23587 7.70624 6.60549 6.15536 6.60549L3.06965 6.60549 3.06965 3.10197 4.74108 3.10197C5.64911 3.10197 6.308 2.95733 6.71789 2.66803 7.13575 2.37875 7.45717 1.85643 7.68217 1.10913L7.84289 0.643063Z" transform="matrix(1 0 0 1.00139 521.003 654.843)"/><path d="M0.144638-22.3231 5.93035-22.3231 11.8607-5.84949 17.775-22.3231 23.5607-22.3231 15.2839 0 8.42135 0Z" transform="matrix(1 0 0 1.00139 551.643 654.843)"/><path d="M19.3022-8.42143 19.3022-6.89462 6.7824-6.89462C6.91097-5.64099 7.36097-4.69687 8.1324-4.06605 8.91186-3.44328 10.0007-3.1339 11.3949-3.1339 12.52-3.1339 13.669-3.29864 14.8503-3.63212 16.0395-3.96158 17.253-4.46784 18.4985-5.14289L18.4985-1.01256C17.2329-0.538447 15.9673-0.180864 14.7057 0.0642549 13.44 0.309343 12.1705 0.433903 10.8968 0.433903 7.87536 0.433903 5.52086-0.337526 3.84141-1.88038 2.15794-3.42324 1.31822-5.58087 1.31822-8.35719 1.31822-11.0893 2.14188-13.2349 3.79317-14.8018 5.44053-16.3647 7.71459-17.1482 10.6075-17.1482 13.2432-17.1482 15.3485-16.3527 16.9235-14.7696 18.5066-13.1947 19.3021-11.0773 19.3021-8.42138ZM13.7896-10.2054C13.7896-11.2219 13.4883-12.0416 12.8896-12.6643 12.299-13.283 11.5276-13.5964 10.5754-13.5964 9.53475-13.5964 8.68701-13.2991 8.03602-12.7125 7.39317-12.1339 6.99141-11.2982 6.83064-10.2054Z" transform="matrix(1 0 0 1.00139 575.353 654.843)"/><path d="M16.1033-16.2319 16.1033-11.8605C15.3721-12.3627 14.6448-12.7323 13.9176-12.9694 13.1863-13.2024 12.427-13.3229 11.6354-13.3229 10.1328-13.3229 8.9675-12.881 8.13189-12.0051 7.3042-11.1373 6.89441-9.9199 6.89441-8.35689 6.89441-6.78996 7.30424-5.56853 8.13189-4.6926 8.9676-3.82474 10.1328-3.39084 11.6354-3.39084 12.4711-3.39084 13.2626-3.51138 14.014-3.76049 14.7734-4.01763 15.4685-4.38728 16.1032-4.86939L16.1032-0.497962C15.2675-0.184567 14.4157 0.0404331 13.5478 0.193114 12.688 0.353829 11.8282 0.434191 10.9604 0.434191 7.93893 0.434191 5.5764-0.337238 3.87288-1.8801 2.16936-3.43097 1.3175-5.59262 1.3175-8.35691 1.3175-11.1212 2.16928-13.2747 3.87288-14.8176 5.5764-16.3685 7.93893-17.1479 10.9604-17.1479 11.8362-17.1479 12.7001-17.0716 13.5478-16.9229 14.4036-16.7702 15.2555-16.5412 16.1032-16.2318Z" transform="matrix(1 0 0 1.00139 596.133 654.843)"/><path d="M8.42143-21.5033 8.42143-16.7462 13.934-16.7462 13.934-12.9211 8.42143-12.9211 8.42143-5.8176C8.42143-5.03412 8.57411-4.50381 8.8875-4.2265 9.19687-3.95731 9.80758-3.82472 10.7196-3.82472L13.4839-3.82472 13.4839 0.000329143 8.88739 0.000329143C6.77399 0.000329143 5.27536-0.437616 4.38739-1.31748 3.50748-2.20542 3.06959-3.70407 3.06959-5.81748L3.06959-12.921 0.401678-12.921 0.401678-16.746 3.06959-16.746 3.06959-21.5032Z" transform="matrix(1 0 0 1.00139 614.294 654.843)"/><path d="M10.5429-13.3231C9.35362-13.3231 8.4455-12.8932 7.82681-12.0374 7.20404-11.1896 6.89467-9.96418 6.89467-8.35704 6.89467-6.7499 7.20404-5.51643 7.82681-4.66056 8.44556-3.81279 9.35362-3.39089 10.5429-3.39089 11.708-3.39089 12.6-3.81277 13.2108-4.66056 13.8295-5.51636 14.1429-6.74979 14.1429-8.35704 14.1429-9.96429 13.8295-11.1896 13.2108-12.0374 12.6001-12.8932 11.7081-13.3231 10.5429-13.3231ZM10.5429-17.1481C13.4237-17.1481 15.6737-16.3687 17.2929-14.8178 18.9201-13.2629 19.7357-11.1093 19.7357-8.35714 19.7357-5.60088 18.9201-3.44736 17.2929-1.89648 15.6737-0.341589 13.4237 0.433851 10.5429 0.433851 7.65 0.433851 5.38797-0.341599 3.76066-1.89648 2.12945-3.44736 1.31781-5.60098 1.31781-8.35714 1.31781-11.1094 2.12941-13.2629 3.76066-14.8178 5.38786-16.3687 7.6499-17.1481 10.5429-17.1481Z" transform="matrix(1 0 0 1.00139 628.943 654.843)"/><path d="M15.011-12.1824C14.5489-12.4074 14.0829-12.5721 13.6127-12.6806 13.1507-12.7851 12.6846-12.8413 12.2145-12.8413 10.8404-12.8413 9.77966-12.3954 9.0323-11.5074 8.29301-10.6275 7.92339-9.36188 7.92339-7.71452L7.92339-0.000236571 2.57163-0.000236571 2.57163-16.7464 7.92339-16.7464 7.92339-13.9982C8.60643-15.091 9.39394-15.8865 10.2859-16.3928 11.1859-16.895 12.2547-17.1481 13.5002-17.1481 13.681-17.1481 13.8739-17.1401 14.0788-17.1321 14.2917-17.12 14.5971-17.0879 14.9948-17.0356Z" transform="matrix(1 0 0 1.00139 649.988 654.843)"/><path d="M15.6538-16.2319 15.6538-12.1658C14.5047-12.6359 13.3958-12.9895 12.327-13.2265 11.2664-13.4716 10.2619-13.5962 9.32164-13.5962 8.3011-13.5962 7.5457-13.4676 7.05559-13.2104 6.56139-12.9613 6.3163-12.5716 6.3163-12.0372 6.3163-11.6073 6.50113-11.2739 6.87881-11.0408 7.25247-10.8158 7.92343-10.6471 8.88771-10.5426L9.81985-10.414C12.5601-10.0605 14.4042-9.48189 15.3484-8.67832 16.3007-7.88278 16.7788-6.63722 16.7788-4.9337 16.7788-3.15375 16.1198-1.81589 14.8019-0.915891 13.4922-0.0158914 11.5314 0.434109 8.91975 0.434109 7.80283 0.434109 6.65772 0.341698 5.48041 0.160899 4.2992-0.007848 3.0858-0.264991 1.83217-0.610529L1.83217-4.67658C2.90096-4.16229 3.99382-3.77658 5.11075-3.51943 6.2358-3.26229 7.37679-3.13372 8.53393-3.13372 9.58256-3.13372 10.3701-3.27032 10.8965-3.55157 11.4308-3.84086 11.7-4.27478 11.7-4.85334 11.7-5.32342 11.5152-5.67699 11.1536-5.914 10.788-6.14703 10.0607-6.33186 8.96789-6.46043L8.03575-6.57293C5.64514-6.87025 3.97371-7.42471 3.02146-8.22832 2.06521-9.03992 1.59113-10.2734 1.59113-11.9248 1.59113-13.6927 2.19381-15.0025 3.40717-15.8623 4.6286-16.7181 6.49289-17.148 9.00003-17.148 9.9844-17.148 11.017-17.0716 12.1018-16.923 13.1946-16.7824 14.3759-16.5533 15.6536-16.2319Z" transform="matrix(1 0 0 1.00139 665.1 654.843)"/><path d="M2.81253-22.3231 12.3751-22.3231C15.2116-22.3231 17.3934-21.6883 18.9161-20.4266 20.4349-19.173 21.1983-17.3771 21.1983-15.0427 21.1983-12.7043 20.4349-10.9043 18.9161-9.64265 17.3934-8.377 15.2116-7.74617 12.3751-7.74617L8.56615-7.74617 8.56615 0.000205714 2.81253 0.000205714ZM8.56615-18.1606 8.56615-11.9248 11.7644-11.9248C12.8773-11.9248 13.7332-12.19 14.3358-12.7284 14.9465-13.2748 15.2519-14.0462 15.2519-15.0427 15.2519-16.0392 14.9465-16.8025 14.3358-17.3409 13.7331-17.8874 12.8773-18.1606 11.7644-18.1606Z" transform="matrix(1 0 0 1.00139 694.004 654.843)"/><path d="M10.5429-13.3231C9.35362-13.3231 8.4455-12.8932 7.82681-12.0374 7.20404-11.1896 6.89467-9.96418 6.89467-8.35704 6.89467-6.7499 7.20404-5.51643 7.82681-4.66056 8.44556-3.81279 9.35362-3.39089 10.5429-3.39089 11.708-3.39089 12.6-3.81277 13.2108-4.66056 13.8295-5.51636 14.1429-6.74979 14.1429-8.35704 14.1429-9.96429 13.8295-11.1896 13.2108-12.0374 12.6001-12.8932 11.7081-13.3231 10.5429-13.3231ZM10.5429-17.1481C13.4237-17.1481 15.6737-16.3687 17.2929-14.8178 18.9201-13.2629 19.7357-11.1093 19.7357-8.35714 19.7357-5.60088 18.9201-3.44736 17.2929-1.89648 15.6737-0.341589 13.4237 0.433851 10.5429 0.433851 7.65 0.433851 5.38797-0.341599 3.76066-1.89648 2.12945-3.44736 1.31781-5.60098 1.31781-8.35714 1.31781-11.1094 2.12941-13.2629 3.76066-14.8178 5.38786-16.3687 7.6499-17.1481 10.5429-17.1481Z" transform="matrix(1 0 0 1.00139 716.46 654.843)"/><path d="M2.57143-16.7462 7.92319-16.7462 7.92319 0 2.57143 0ZM2.57143-23.2712 7.92319-23.2712 7.92319-18.8998 2.57143-18.8998Z" transform="matrix(1 0 0 1.00139 737.505 654.843)"/><path d="M19.4143-10.2054 19.4143 0 14.0303 0 14.0303-7.81077C14.0303-9.25714 13.9982-10.2536 13.9339-10.8 13.8696-11.3464 13.7571-11.7482 13.5964-12.0054 13.3794-12.359 13.0902-12.6322 12.7286-12.825 12.375-13.0179 11.9732-13.1143 11.5232-13.1143 10.3981-13.1143 9.51427-12.6804 8.87141-11.8126 8.23658-10.9527 7.92319-9.76344 7.92319-8.24465L7.92319-3.08571e-05 2.57143-3.08571e-05 2.57143-16.7462 7.92319-16.7462 7.92319-14.3033C8.73479-15.2757 9.59462-15.9948 10.4946-16.457 11.4027-16.915 12.4071-17.148 13.5-17.148 15.4366-17.148 16.9071-16.5534 17.9035-15.3641 18.908-14.1829 19.4143-12.4632 19.4143-10.2052Z" transform="matrix(1 0 0 1.00139 748.008 654.843)"/><path d="M8.42143-21.5033 8.42143-16.7462 13.934-16.7462 13.934-12.9211 8.42143-12.9211 8.42143-5.8176C8.42143-5.03412 8.57411-4.50381 8.8875-4.2265 9.19687-3.95731 9.80758-3.82472 10.7196-3.82472L13.4839-3.82472 13.4839 0.000329143 8.88739 0.000329143C6.77399 0.000329143 5.27536-0.437616 4.38739-1.31748 3.50748-2.20542 3.06959-3.70407 3.06959-5.81748L3.06959-12.921 0.401678-12.921 0.401678-16.746 3.06959-16.746 3.06959-21.5032Z" transform="matrix(1 0 0 1.00139 769.821 654.843)"/><path d="M13.5967-23.2714 13.5967-19.7518 10.6395-19.7518C9.87615-19.7518 9.34581-19.6111 9.04845-19.3339 8.74711-19.0647 8.59845-18.5946 8.59845-17.9196L8.59845-16.7464 13.1788-16.7464 13.1788-12.9214 8.59845-12.9214 8.59845-0.000462857 3.24669-0.000462857 3.24669-12.9214 0.578777-12.9214 0.578777-16.7464 3.24669-16.7464 3.24669-17.9196C3.24669-19.7397 3.75294-21.0857 4.7735-21.9536 5.79001-22.8295 7.36498-23.2714 9.49855-23.2714Z" transform="matrix(1 0 0 1.00139 352 685.522)"/><path d="M15.011-12.1824C14.5489-12.4074 14.0829-12.5721 13.6127-12.6806 13.1507-12.7851 12.6846-12.8413 12.2145-12.8413 10.8404-12.8413 9.77966-12.3954 9.0323-11.5074 8.29301-10.6275 7.92339-9.36188 7.92339-7.71452L7.92339-0.000236571 2.57163-0.000236571 2.57163-16.7464 7.92339-16.7464 7.92339-13.9982C8.60643-15.091 9.39394-15.8865 10.2859-16.3928 11.1859-16.895 12.2547-17.1481 13.5002-17.1481 13.681-17.1481 13.8739-17.1401 14.0788-17.1321 14.2917-17.12 14.5971-17.0879 14.9948-17.0356Z" transform="matrix(1 0 0 1.00139 365.331 685.522)"/><path d="M10.5429-13.3231C9.35362-13.3231 8.4455-12.8932 7.82681-12.0374 7.20404-11.1896 6.89467-9.96418 6.89467-8.35704 6.89467-6.7499 7.20404-5.51643 7.82681-4.66056 8.44556-3.81279 9.35362-3.39089 10.5429-3.39089 11.708-3.39089 12.6-3.81277 13.2108-4.66056 13.8295-5.51636 14.1429-6.74979 14.1429-8.35704 14.1429-9.96429 13.8295-11.1896 13.2108-12.0374 12.6001-12.8932 11.7081-13.3231 10.5429-13.3231ZM10.5429-17.1481C13.4237-17.1481 15.6737-16.3687 17.2929-14.8178 18.9201-13.2629 19.7357-11.1093 19.7357-8.35714 19.7357-5.60088 18.9201-3.44736 17.2929-1.89648 15.6737-0.341589 13.4237 0.433851 10.5429 0.433851 7.65 0.433851 5.38797-0.341599 3.76066-1.89648 2.12945-3.44736 1.31781-5.60098 1.31781-8.35714 1.31781-11.1094 2.12941-13.2629 3.76066-14.8178 5.38786-16.3687 7.6499-17.1481 10.5429-17.1481Z" transform="matrix(1 0 0 1.00139 380.438 685.522)"/><path d="M18.0967-13.9659C18.7717-15.0025 19.5753-15.79 20.5075-16.3285 21.4396-16.8749 22.4681-17.1481 23.5932-17.1481 25.5097-17.1481 26.9722-16.5535 27.9806-15.3642 28.9851-14.183 29.4914-12.4633 29.4914-10.2053L29.4914 0.000123429 24.1075 0.000123429 24.1075-8.74273C24.1155-8.87131 24.1235-9.0039 24.1235-9.14452 24.1316-9.28112 24.1396-9.48201 24.1396-9.73915 24.1396-10.9284 23.9628-11.7843 23.6092-12.3106 23.2637-12.845 22.7012-13.1142 21.9218-13.1142 20.9012-13.1142 20.1137-12.6963 19.5592-11.8605 19.0128-11.0248 18.7276-9.81141 18.7075-8.22844L18.7075 0.000133714 13.3235 0.000133714 13.3235-8.74272C13.3235-10.595 13.1628-11.7842 12.8414-12.3106 12.528-12.845 11.9615-13.1142 11.1378-13.1142 10.1093-13.1142 9.31378-12.6883 8.75927-11.8445 8.20079-11.0088 7.92356-9.80745 7.92356-8.24454L7.92356 8.22857e-05 2.5396 8.22857e-05 2.5396-16.7461 7.92356-16.7461 7.92356-14.3032C8.5865-15.2434 9.34186-15.9506 10.1896-16.4247 11.0454-16.9068 11.9896-17.1479 13.0182-17.1479 14.1753-17.1479 15.1919-16.8666 16.0718-16.3122 16.9597-15.7537 17.6347-14.9702 18.0969-13.9658Z" transform="matrix(1 0 0 1.00139 401.488 685.522)"/><path d="M8.42143-21.5033 8.42143-16.7462 13.934-16.7462 13.934-12.9211 8.42143-12.9211 8.42143-5.8176C8.42143-5.03412 8.57411-4.50381 8.8875-4.2265 9.19687-3.95731 9.80758-3.82472 10.7196-3.82472L13.4839-3.82472 13.4839 0.000329143 8.88739 0.000329143C6.77399 0.000329143 5.27536-0.437616 4.38739-1.31748 3.50748-2.20542 3.06959-3.70407 3.06959-5.81748L3.06959-12.921 0.401678-12.921 0.401678-16.746 3.06959-16.746 3.06959-21.5032Z" transform="matrix(1 0 0 1.00139 444.081 685.522)"/><path d="M19.4143-10.2054 19.4143 0 14.0303 0 14.0303-7.77857C14.0303-9.24511 13.9982-10.2535 13.9339-10.8 13.8696-11.3465 13.7571-11.7482 13.5964-12.0054 13.3794-12.359 13.0902-12.6322 12.7286-12.825 12.375-13.0179 11.9732-13.1143 11.5232-13.1143 10.3981-13.1143 9.51427-12.6804 8.87141-11.8126 8.23658-10.9527 7.92319-9.76344 7.92319-8.24465L7.92319-3.08571e-05 2.57143-3.08571e-05 2.57143-23.2715 7.92319-23.2715 7.92319-14.3036C8.73479-15.2759 9.59462-15.995 10.4946-16.4572 11.4027-16.9152 12.4071-17.1483 13.5-17.1483 15.4366-17.1483 16.9071-16.5536 17.9035-15.3643 18.908-14.1831 19.4143-12.4634 19.4143-10.2054Z" transform="matrix(1 0 0 1.00139 458.726 685.522)"/><path d="M19.3022-8.42143 19.3022-6.89462 6.7824-6.89462C6.91097-5.64099 7.36097-4.69687 8.1324-4.06605 8.91186-3.44328 10.0007-3.1339 11.3949-3.1339 12.52-3.1339 13.669-3.29864 14.8503-3.63212 16.0395-3.96158 17.253-4.46784 18.4985-5.14289L18.4985-1.01256C17.2329-0.538447 15.9673-0.180864 14.7057 0.0642549 13.44 0.309343 12.1705 0.433903 10.8968 0.433903 7.87536 0.433903 5.52086-0.337526 3.84141-1.88038 2.15794-3.42324 1.31822-5.58087 1.31822-8.35719 1.31822-11.0893 2.14188-13.2349 3.79317-14.8018 5.44053-16.3647 7.71459-17.1482 10.6075-17.1482 13.2432-17.1482 15.3485-16.3527 16.9235-14.7696 18.5066-13.1947 19.3021-11.0773 19.3021-8.42138ZM13.7896-10.2054C13.7896-11.2219 13.4883-12.0416 12.8896-12.6643 12.299-13.283 11.5276-13.5964 10.5754-13.5964 9.53475-13.5964 8.68701-13.2991 8.03602-12.7125 7.39317-12.1339 6.99141-11.2982 6.83064-10.2054Z" transform="matrix(1 0 0 1.00139 480.535 685.522)"/><path d="M2.81253-22.3231 9.2411-22.3231 17.3732-7.00663 17.3732-22.3231 22.8214-22.3231 22.8214 0 16.3929 0 8.27681-15.3165 8.27681 0 2.81253 0Z" transform="matrix(1 0 0 1.00139 511.983 685.522)"/><path d="M10.5429-13.3231C9.35362-13.3231 8.4455-12.8932 7.82681-12.0374 7.20404-11.1896 6.89467-9.96418 6.89467-8.35704 6.89467-6.7499 7.20404-5.51643 7.82681-4.66056 8.44556-3.81279 9.35362-3.39089 10.5429-3.39089 11.708-3.39089 12.6-3.81277 13.2108-4.66056 13.8295-5.51636 14.1429-6.74979 14.1429-8.35704 14.1429-9.96429 13.8295-11.1896 13.2108-12.0374 12.6001-12.8932 11.7081-13.3231 10.5429-13.3231ZM10.5429-17.1481C13.4237-17.1481 15.6737-16.3687 17.2929-14.8178 18.9201-13.2629 19.7357-11.1093 19.7357-8.35714 19.7357-5.60088 18.9201-3.44736 17.2929-1.89648 15.6737-0.341589 13.4237 0.433851 10.5429 0.433851 7.65 0.433851 5.38797-0.341599 3.76066-1.89648 2.12945-3.44736 1.31781-5.60098 1.31781-8.35714 1.31781-11.1094 2.12941-13.2629 3.76066-14.8178 5.38786-16.3687 7.6499-17.1481 10.5429-17.1481Z" transform="matrix(1 0 0 1.00139 537.625 685.522)"/><path d="M2.39462-6.52505 2.39462-16.7465 7.77857-16.7465 7.77857-15.0751C7.77857-14.163 7.77054-13.0219 7.7625-11.6519 7.75045-10.2778 7.74643-9.36967 7.74643-8.91977 7.74643-7.56977 7.77857-6.59345 7.84286-5.99472 7.91518-5.40409 8.03974-4.97418 8.21251-4.70901 8.42545-4.36347 8.71072-4.09829 9.06429-3.90543 9.41785-3.71258 9.82366-3.61615 10.2857-3.61615 11.4108-3.61615 12.2866-4.04204 12.9214-4.90186 13.5643-5.75767 13.8857-6.95098 13.8857-8.48582L13.8857-16.7465 19.2375-16.7465 19.2375-0.000308571 13.8857-0.000308571 13.8857-2.42712C13.0701-1.45078 12.2143-0.727611 11.3143-0.257451 10.4143 0.200582 9.41781 0.433625 8.32505 0.433625 6.39648 0.433625 4.92192-0.161013 3.90538-1.35033 2.8969-2.53956 2.39462-4.26324 2.39462-6.52528Z" transform="matrix(1 0 0 1.00139 558.675 685.522)"/><path d="M19.4143-10.2054 19.4143 0 14.0303 0 14.0303-7.81077C14.0303-9.25714 13.9982-10.2536 13.9339-10.8 13.8696-11.3464 13.7571-11.7482 13.5964-12.0054 13.3794-12.359 13.0902-12.6322 12.7286-12.825 12.375-13.0179 11.9732-13.1143 11.5232-13.1143 10.3981-13.1143 9.51427-12.6804 8.87141-11.8126 8.23658-10.9527 7.92319-9.76344 7.92319-8.24465L7.92319-3.08571e-05 2.57143-3.08571e-05 2.57143-16.7462 7.92319-16.7462 7.92319-14.3033C8.73479-15.2757 9.59462-15.9948 10.4946-16.457 11.4027-16.915 12.4071-17.148 13.5-17.148 15.4366-17.148 16.9071-16.5534 17.9035-15.3641 18.908-14.1829 19.4143-12.4632 19.4143-10.2052Z" transform="matrix(1 0 0 1.00139 580.487 685.522)"/><path d="M2.81253-22.3231 12.3751-22.3231C15.2116-22.3231 17.3934-21.6883 18.9161-20.4266 20.4349-19.173 21.1983-17.3771 21.1983-15.0427 21.1983-12.7043 20.4349-10.9043 18.9161-9.64265 17.3934-8.377 15.2116-7.74617 12.3751-7.74617L8.56615-7.74617 8.56615 0.000205714 2.81253 0.000205714ZM8.56615-18.1606 8.56615-11.9248 11.7644-11.9248C12.8773-11.9248 13.7332-12.19 14.3358-12.7284 14.9465-13.2748 15.2519-14.0462 15.2519-15.0427 15.2519-16.0392 14.9465-16.8025 14.3358-17.3409 13.7331-17.8874 12.8773-18.1606 11.7644-18.1606Z" transform="matrix(1 0 0 1.00139 612.964 685.522)"/><path d="M15.011-12.1824C14.5489-12.4074 14.0829-12.5721 13.6127-12.6806 13.1507-12.7851 12.6846-12.8413 12.2145-12.8413 10.8404-12.8413 9.77966-12.3954 9.0323-11.5074 8.29301-10.6275 7.92339-9.36188 7.92339-7.71452L7.92339-0.000236571 2.57163-0.000236571 2.57163-16.7464 7.92339-16.7464 7.92339-13.9982C8.60643-15.091 9.39394-15.8865 10.2859-16.3928 11.1859-16.895 12.2547-17.1481 13.5002-17.1481 13.681-17.1481 13.8739-17.1401 14.0788-17.1321 14.2917-17.12 14.5971-17.0879 14.9948-17.0356Z" transform="matrix(1 0 0 1.00139 635.42 685.522)"/><path d="M10.5429-13.3231C9.35362-13.3231 8.4455-12.8932 7.82681-12.0374 7.20404-11.1896 6.89467-9.96418 6.89467-8.35704 6.89467-6.7499 7.20404-5.51643 7.82681-4.66056 8.44556-3.81279 9.35362-3.39089 10.5429-3.39089 11.708-3.39089 12.6-3.81277 13.2108-4.66056 13.8295-5.51636 14.1429-6.74979 14.1429-8.35704 14.1429-9.96429 13.8295-11.1896 13.2108-12.0374 12.6001-12.8932 11.7081-13.3231 10.5429-13.3231ZM10.5429-17.1481C13.4237-17.1481 15.6737-16.3687 17.2929-14.8178 18.9201-13.2629 19.7357-11.1093 19.7357-8.35714 19.7357-5.60088 18.9201-3.44736 17.2929-1.89648 15.6737-0.341589 13.4237 0.433851 10.5429 0.433851 7.65 0.433851 5.38797-0.341599 3.76066-1.89648 2.12945-3.44736 1.31781-5.60098 1.31781-8.35714 1.31781-11.1094 2.12941-13.2629 3.76066-14.8178 5.38786-16.3687 7.6499-17.1481 10.5429-17.1481Z" transform="matrix(1 0 0 1.00139 650.531 685.522)"/><path d="M2.57143-16.7462 7.92319-16.7462 7.92319-0.305486C7.92319 1.94451 7.38078 3.65616 6.3 4.83737 5.2272 6.01457 3.6683 6.60528 1.62319 6.60528L-1.01253 6.60528-1.01253 3.10176-0.0964594 3.10176C0.920057 3.10176 1.61519 2.86873 1.99277 2.41068 2.37849 1.94863 2.57135 1.04464 2.57135-0.305362ZM2.57143-23.2712 7.92319-23.2712 7.92319-18.8998 2.57143-18.8998Z" transform="matrix(1 0 0 1.00139 671.576 685.522)"/><path d="M19.3022-8.42143 19.3022-6.89462 6.7824-6.89462C6.91097-5.64099 7.36097-4.69687 8.1324-4.06605 8.91186-3.44328 10.0007-3.1339 11.3949-3.1339 12.52-3.1339 13.669-3.29864 14.8503-3.63212 16.0395-3.96158 17.253-4.46784 18.4985-5.14289L18.4985-1.01256C17.2329-0.538447 15.9673-0.180864 14.7057 0.0642549 13.44 0.309343 12.1705 0.433903 10.8968 0.433903 7.87536 0.433903 5.52086-0.337526 3.84141-1.88038 2.15794-3.42324 1.31822-5.58087 1.31822-8.35719 1.31822-11.0893 2.14188-13.2349 3.79317-14.8018 5.44053-16.3647 7.71459-17.1482 10.6075-17.1482 13.2432-17.1482 15.3485-16.3527 16.9235-14.7696 18.5066-13.1947 19.3021-11.0773 19.3021-8.42138ZM13.7896-10.2054C13.7896-11.2219 13.4883-12.0416 12.8896-12.6643 12.299-13.283 11.5276-13.5964 10.5754-13.5964 9.53475-13.5964 8.68701-13.2991 8.03602-12.7125 7.39317-12.1339 6.99141-11.2982 6.83064-10.2054Z" transform="matrix(1 0 0 1.00139 682.079 685.522)"/><path d="M16.1033-16.2319 16.1033-11.8605C15.3721-12.3627 14.6448-12.7323 13.9176-12.9694 13.1863-13.2024 12.427-13.3229 11.6354-13.3229 10.1328-13.3229 8.9675-12.881 8.13189-12.0051 7.3042-11.1373 6.89441-9.9199 6.89441-8.35689 6.89441-6.78996 7.30424-5.56853 8.13189-4.6926 8.9676-3.82474 10.1328-3.39084 11.6354-3.39084 12.4711-3.39084 13.2626-3.51138 14.014-3.76049 14.7734-4.01763 15.4685-4.38728 16.1032-4.86939L16.1032-0.497962C15.2675-0.184567 14.4157 0.0404331 13.5478 0.193114 12.688 0.353829 11.8282 0.434191 10.9604 0.434191 7.93893 0.434191 5.5764-0.337238 3.87288-1.8801 2.16936-3.43097 1.3175-5.59262 1.3175-8.35691 1.3175-11.1212 2.16928-13.2747 3.87288-14.8176 5.5764-16.3685 7.93893-17.1479 10.9604-17.1479 11.8362-17.1479 12.7001-17.0716 13.5478-16.9229 14.4036-16.7702 15.2555-16.5412 16.1032-16.2318Z" transform="matrix(1 0 0 1.00139 702.859 685.522)"/><path d="M8.42143-21.5033 8.42143-16.7462 13.934-16.7462 13.934-12.9211 8.42143-12.9211 8.42143-5.8176C8.42143-5.03412 8.57411-4.50381 8.8875-4.2265 9.19687-3.95731 9.80758-3.82472 10.7196-3.82472L13.4839-3.82472 13.4839 0.000329143 8.88739 0.000329143C6.77399 0.000329143 5.27536-0.437616 4.38739-1.31748 3.50748-2.20542 3.06959-3.70407 3.06959-5.81748L3.06959-12.921 0.401678-12.921 0.401678-16.746 3.06959-16.746 3.06959-21.5032Z" transform="matrix(1 0 0 1.00139 721.02 685.522)"/></g></svg>