<svg width="36" height="31" viewBox="0 0 36 31" fill="none" xmlns="http://www.w3.org/2000/svg">
<path d="M35.6287 4.17983C34.4736 4.67724 33.2592 5.02362 32.0156 5.21039C32.597 5.11065 33.4525 4.06347 33.7931 3.63962C34.3104 3.00026 34.7047 2.27039 34.9559 1.48708C34.9559 1.4289 35.014 1.34579 34.9559 1.30424C34.9266 1.28823 34.8937 1.27985 34.8604 1.27985C34.827 1.27985 34.7941 1.28823 34.7649 1.30424C33.4145 2.03595 31.9773 2.59442 30.4873 2.96643C30.4354 2.9823 30.3801 2.98373 30.3274 2.97055C30.2747 2.95737 30.2266 2.93009 30.1883 2.89163C30.0723 2.75344 29.9475 2.62296 29.8145 2.50101C29.2068 1.95619 28.5173 1.51027 27.7713 1.17957C26.7642 0.766165 25.6764 0.587128 24.5901 0.655981C23.536 0.722592 22.5069 1.00549 21.5668 1.48708C20.6409 1.99481 19.8273 2.68459 19.1746 3.51495C18.4881 4.36961 17.9925 5.36146 17.7211 6.42379C17.4973 7.43428 17.4719 8.47866 17.6464 9.49884C17.6464 9.67337 17.6464 9.6983 17.4969 9.67337C11.5747 8.80072 6.71577 6.69805 2.74554 2.1852C2.57112 1.98573 2.47975 1.98573 2.33855 2.1852C0.610923 4.81146 1.44982 8.96694 3.60936 11.0197C3.90007 11.294 4.19908 11.56 4.5147 11.8093C3.52457 11.739 2.55862 11.4705 1.67408 11.0197C1.50796 10.9117 1.4166 10.9699 1.40829 11.1693C1.38475 11.4459 1.38475 11.7239 1.40829 12.0004C1.5816 13.3257 2.10356 14.5811 2.9208 15.6383C3.73804 16.6956 4.82123 17.5166 6.0596 18.0176C6.36149 18.147 6.67605 18.2444 6.99817 18.3085C6.08155 18.489 5.14144 18.5171 4.21569 18.3916C4.01635 18.35 3.9416 18.4581 4.01635 18.6492C5.23732 21.9736 7.88691 22.9875 9.83049 23.5527C10.0963 23.5942 10.3621 23.5942 10.6611 23.6607C10.6611 23.6607 10.6611 23.6607 10.6112 23.7106C10.0381 24.7578 7.72079 25.4642 6.65763 25.8299C4.7171 26.5273 2.64812 26.7939 0.594311 26.6111C0.27038 26.5612 0.195627 26.5695 0.112568 26.6111C0.0295087 26.6527 0.112568 26.7441 0.203933 26.8272C0.619229 27.1014 1.03452 27.3425 1.46643 27.5752C2.75223 28.2769 4.11157 28.8344 5.51972 29.2374C12.8123 31.2486 21.0186 29.7693 26.4922 24.3256C30.7946 20.0538 32.3063 14.1613 32.3063 8.26051C32.3063 8.03611 32.5804 7.90314 32.7382 7.78678C33.8267 6.93815 34.7864 5.93593 35.5871 4.81146C35.7258 4.64384 35.7969 4.43043 35.7865 4.21307V4.21307C35.7865 4.08841 35.7865 4.11334 35.6287 4.17983Z" fill="#DADADA"/>
</svg>
